<svg width="77" height="47" viewBox="0 0 77 47" fill="none" xmlns="http://www.w3.org/2000/svg">
<path d="M7.68316 15.7998L9.49747 21.6566H15.3663L10.6188 25.2756L12.4331 31.1324L7.68316 27.511L2.93563 31.1324L4.74994 25.2756L0 21.6566H5.86885L7.68316 15.7998Z" fill="white"/>
<path d="M23.0519 15.7998L24.8638 21.6566H30.7351L25.9851 25.2756L27.7994 31.1324L23.0519 27.511L18.302 31.1324L20.1163 25.2756L15.3663 21.6566H21.2376L23.0519 15.7998Z" fill="white"/>
<path d="M38.4181 15.7998L40.2325 21.6566H46.1013L41.3538 25.2756L43.1681 31.1324L38.4181 27.511L33.6682 31.1324L35.4825 25.2756L30.735 21.6566H36.6038L38.4181 15.7998Z" fill="white"/>
<path d="M53.7845 15.7998L55.5988 21.6566H61.47L56.7201 25.2756L58.5344 31.1324L53.7845 27.511L49.0369 31.1324L50.8513 25.2756L46.1013 21.6566H51.9726L53.7845 15.7998Z" fill="white"/>
<path d="M69.1532 15.7998L70.9676 21.6566H76.8364L72.0865 25.2756L73.9008 31.1324L69.1532 27.511L64.4033 31.1324L66.2176 25.2756L61.4701 21.6566H67.3389L69.1532 15.7998Z" fill="white"/>
</svg>
