<svg width="77" height="77" viewBox="0 0 77 77" fill="none" xmlns="http://www.w3.org/2000/svg">
<path d="M74.1702 11.9778H61.4267C60.6762 11.9778 59.9565 12.2724 59.4258 12.797C58.8951 13.3215 58.597 14.0328 58.597 14.7746V47.7162C58.1581 48.0052 57.7504 48.338 57.3804 48.7093C56.361 49.7956 55.435 50.964 54.6122 52.2025C54.285 52.7048 54.027 53.15 53.796 53.5457C53.4184 54.4102 52.7935 55.1469 51.9981 55.6652C51.3043 56.0132 50.5534 56.2361 49.7805 56.3235C49.2431 56.4055 48.6985 56.431 48.1558 56.3996V32.2062C48.1558 31.8277 48.0037 31.4648 47.7329 31.1972C47.4622 30.9296 47.0949 30.7792 46.712 30.7792H1.44375C1.06084 30.7792 0.69362 30.9296 0.422864 31.1972C0.152109 31.4648 0 31.8277 0 32.2062V60.7451C0 61.1236 0.152109 61.4865 0.422864 61.7541C0.69362 62.0217 1.06084 62.1721 1.44375 62.1721H3.9732C4.3561 62.1721 4.72333 62.3224 4.99408 62.59C5.26484 62.8576 5.41695 63.2206 5.41695 63.599C5.41695 63.7862 5.45432 63.9716 5.52692 64.1445C5.59952 64.3174 5.70593 64.4745 5.84004 64.6067C5.97416 64.7389 6.13335 64.8436 6.30849 64.9149C6.48363 64.9862 6.67128 65.0227 6.8607 65.0222H15.4C15.5894 65.0227 15.7771 64.9862 15.9522 64.9149C16.1273 64.8436 16.2865 64.7389 16.4206 64.6067C16.5548 64.4745 16.6612 64.3174 16.7338 64.1445C16.8064 63.9716 16.8437 63.7862 16.8437 63.599C16.8437 63.2206 16.9958 62.8576 17.2666 62.59C17.5374 62.3224 17.9046 62.1721 18.2875 62.1721H29.8375C30.2204 62.1721 30.5876 62.3224 30.8584 62.59C31.1291 62.8576 31.2812 63.2206 31.2812 63.599C31.2812 63.7862 31.3186 63.9716 31.3912 64.1445C31.4638 64.3174 31.5702 64.4745 31.7043 64.6067C31.8384 64.7389 31.9976 64.8436 32.1728 64.9149C32.3479 64.9862 32.5356 65.0227 32.725 65.0222H41.2758C41.4652 65.0227 41.6529 64.9862 41.828 64.9149C42.0032 64.8436 42.1624 64.7389 42.2965 64.6067C42.4306 64.4745 42.537 64.3174 42.6096 64.1445C42.6822 63.9716 42.7196 63.7862 42.7196 63.599C42.7191 63.4118 42.7559 63.2263 42.8281 63.0532C42.9002 62.8801 43.0062 62.7228 43.1399 62.5903C43.2737 62.4577 43.4326 62.3525 43.6076 62.2808C43.7825 62.209 43.9701 62.1721 44.1595 62.1721H46.6928C46.9972 62.1703 47.2931 62.0722 47.537 61.8921C47.7808 61.712 47.9599 61.4594 48.048 61.1713C48.4312 61.2196 48.8167 61.2488 49.203 61.2588C49.708 61.2534 50.2122 61.2153 50.7122 61.1447C51.6346 61.0354 52.5293 60.7621 53.3533 60.338C54.3476 59.7195 55.1351 58.8247 55.6171 57.7657C55.8352 57.3852 56.0919 56.9539 56.3871 56.4719C57.0522 55.4783 57.7841 54.53 58.5777 53.6332V62.2254C58.5777 62.9671 58.8759 63.6785 59.4065 64.203C59.9372 64.7275 60.657 65.0222 61.4075 65.0222H74.151C74.5255 65.0247 74.8968 64.9537 75.2433 64.8133C75.5899 64.673 75.9048 64.466 76.1698 64.2044C76.4348 63.9428 76.6447 63.6319 76.7872 63.2895C76.9297 62.9472 77.002 62.5803 77 62.2101V14.7746C77 14.0328 76.7018 13.3215 76.1711 12.797C75.6405 12.2724 74.9207 11.9778 74.1702 11.9778ZM25.8835 33.3477C25.8835 32.9693 26.0356 32.6063 26.3064 32.3387C26.5772 32.0711 26.9444 31.9208 27.3273 31.9208H45.507C45.8899 31.9208 46.2571 32.0711 46.5279 32.3387C46.7986 32.6063 46.9507 32.9693 46.9507 33.3477V57.3205C46.9507 57.6989 46.7986 58.0619 46.5279 58.3295C46.2571 58.5971 45.8899 58.7474 45.507 58.7474H27.335C26.9521 58.7474 26.5849 58.5971 26.3141 58.3295C26.0433 58.0619 25.8912 57.6989 25.8912 57.3205L25.8835 33.3477ZM13.5443 35.3455C14.7539 35.29 15.9624 35.4776 17.0966 35.8969C18.2308 36.3162 19.2672 36.9585 20.1431 37.7849C21.019 38.6114 21.7162 39.6048 22.1925 40.7052C22.6689 41.8056 22.9145 42.99 22.9145 44.1868C22.9145 45.3837 22.6689 46.5681 22.1925 47.6685C21.7162 48.7689 21.019 49.7623 20.1431 50.5888C19.2672 51.4152 18.2308 52.0575 17.0966 52.4768C15.9624 52.8961 14.7539 53.0837 13.5443 53.0282C12.3346 53.0837 11.1262 52.8961 9.99198 52.4768C8.85777 52.0575 7.82139 51.4152 6.9455 50.5888C6.06961 49.7623 5.37241 48.7689 4.89606 47.6685C4.41971 46.5681 4.17412 45.3837 4.17412 44.1868C4.17412 42.99 4.41971 41.8056 4.89606 40.7052C5.37241 39.6048 6.06961 38.6114 6.9455 37.7849C7.82139 36.9585 8.85777 36.3162 9.99198 35.8969C11.1262 35.4776 12.3346 35.29 13.5443 35.3455ZM46.97 61.0153H1.20505V59.8737H46.97V61.0153ZM58.135 52.2976C57.1142 53.3837 56.187 54.5522 55.363 55.7908C55.0806 56.2323 54.8084 56.6802 54.5468 57.134C54.1692 57.9985 53.5443 58.7352 52.7488 59.2535C52.0551 59.6014 51.3041 59.8244 50.5312 59.9118C49.7459 60.0214 48.9488 60.0214 48.1635 59.9118V57.6287C48.2674 57.6287 48.3675 57.6515 48.4715 57.6515C48.9765 57.6461 49.4807 57.608 49.9807 57.5374C50.9031 57.4281 51.7978 57.1548 52.6218 56.7307C53.6162 56.1133 54.4028 55.2181 54.8817 54.1583C55.1024 53.7778 55.3591 53.3466 55.6517 52.8646C56.4375 51.6957 57.3154 50.59 58.2774 49.5579C58.3775 49.464 58.4815 49.3714 58.5893 49.2801V51.8714C58.4353 52.016 58.2697 52.1492 58.135 52.2976ZM75.9951 28.3249C75.9951 28.9758 75.7335 29.6001 75.2678 30.0604C74.8021 30.5207 74.1705 30.7792 73.5119 30.7792H62.1582C61.4996 30.7792 60.868 30.5207 60.4023 30.0604C59.9366 29.6001 59.675 28.9758 59.675 28.3249V15.3872C59.675 14.7363 59.9366 14.112 60.4023 13.6517C60.868 13.1915 61.4996 12.9329 62.1582 12.9329H73.5042C74.1628 12.9329 74.7944 13.1915 75.2601 13.6517C75.7258 14.112 75.9874 14.7363 75.9874 15.3872L75.9951 28.3249ZM7.62685 43.6903C8.5486 44.1171 9.52339 44.4216 10.5259 44.5959C10.5724 44.9065 10.6672 45.2081 10.8069 45.4901C10.0084 46.1594 9.29939 46.9267 8.69714 47.7732C8.53587 48.0278 8.42886 48.3122 8.38266 48.609C8.33646 48.9058 8.35204 49.2089 8.42844 49.4995C8.50485 49.7902 8.64048 50.0624 8.82703 50.2995C9.01357 50.5366 9.24711 50.7335 9.51335 50.8783C10.0662 51.1697 10.7112 51.2402 11.3152 51.0753C11.9191 50.9103 12.4359 50.5224 12.7589 49.9917C13.2484 49.0417 13.6095 48.0323 13.833 46.9894C14.1115 46.9526 14.3835 46.8783 14.6415 46.7687C15.3404 47.5592 16.1462 48.2506 17.0362 48.8235C17.5891 49.1149 18.2341 49.1854 18.8381 49.0204C19.442 48.8555 19.9588 48.4676 20.2818 47.9369C20.4438 47.6824 20.5516 47.3979 20.5984 47.1008C20.6452 46.8038 20.6302 46.5004 20.5541 46.2092C20.478 45.9181 20.3426 45.6455 20.1561 45.4079C19.9695 45.1704 19.7359 44.9731 19.4694 44.828C18.5324 44.3931 17.5405 44.0846 16.5203 43.911C16.511 43.5977 16.4459 43.2886 16.3278 42.9977C17.1129 42.326 17.8088 41.5589 18.3991 40.7146C18.5612 40.4602 18.6689 40.1757 18.7158 39.8786C18.7626 39.5815 18.7475 39.2781 18.6714 38.987C18.5954 38.6959 18.4599 38.4232 18.2734 38.1857C18.0869 37.9482 17.8532 37.7508 17.5868 37.6058C17.0339 37.3143 16.3889 37.2438 15.785 37.4088C15.181 37.5738 14.6642 37.9617 14.3412 38.4924C13.8923 39.3474 13.5547 40.2552 13.3364 41.1941C12.9591 41.2262 12.5911 41.3268 12.2507 41.4909C11.6003 40.7932 10.8644 40.1783 10.06 39.6606C9.50697 39.37 8.86229 39.3001 8.2586 39.465C7.65491 39.6299 7.13811 40.0172 6.8145 40.5472C6.64669 40.8028 6.53427 41.0901 6.48433 41.3908C6.43438 41.6916 6.448 41.9993 6.52431 42.2945C6.60063 42.5898 6.73799 42.8663 6.92775 43.1065C7.1175 43.3467 7.35553 43.5455 7.62685 43.6903ZM12.0351 43.3097C12.271 42.925 12.6469 42.644 13.0858 42.5245C13.5246 42.4049 13.9931 42.4558 14.3951 42.6667C14.5885 42.7725 14.7581 42.9161 14.8935 43.0887C15.0289 43.2614 15.1274 43.4595 15.1828 43.6709C15.2383 43.8824 15.2496 44.1028 15.2161 44.3187C15.1827 44.5347 15.105 44.7416 14.988 44.9269C14.7541 45.3138 14.3782 45.5966 13.9385 45.7164C13.4989 45.8362 13.0295 45.7838 12.628 45.57C12.4357 45.4642 12.2671 45.3209 12.1324 45.1488C11.9976 44.9768 11.8996 44.7795 11.8442 44.569C11.7888 44.3584 11.7771 44.139 11.8099 43.9238C11.8427 43.7087 11.9193 43.5024 12.0351 43.3174V43.3097ZM29.7104 56.4529H42.5232C43.0593 56.4529 43.5734 56.2424 43.9525 55.8678C44.3315 55.4931 44.5445 54.985 44.5445 54.4551V52.172C44.5445 51.9099 44.4922 51.6503 44.3905 51.4081C44.2889 51.1659 44.14 50.946 43.9522 50.7608C43.7645 50.5756 43.5416 50.4288 43.2964 50.3288C43.0512 50.2288 42.7885 50.1776 42.5232 50.1781H29.7104C29.4452 50.1776 29.1824 50.2288 28.9372 50.3288C28.692 50.4288 28.4692 50.5756 28.2814 50.7608C28.0937 50.946 27.9447 51.1659 27.8431 51.4081C27.7415 51.6503 27.6892 51.9099 27.6892 52.172V54.4551C27.6892 54.985 27.9021 55.4931 28.2812 55.8678C28.6603 56.2424 29.1744 56.4529 29.7104 56.4529ZM30.9116 51.3159H41.3066C41.8427 51.3159 42.3568 51.5263 42.7359 51.901C43.1149 52.2756 43.3279 52.7838 43.3279 53.3136C43.3279 53.8434 43.1149 54.3516 42.7359 54.7262C42.3568 55.1008 41.8427 55.3113 41.3066 55.3113H30.9116C30.3756 55.3113 29.8615 55.1008 29.4824 54.7262C29.1033 54.3516 28.8904 53.8434 28.8904 53.3136C28.8904 52.7838 29.1033 52.2756 29.4824 51.901C29.8615 51.5263 30.3756 51.3159 30.9116 51.3159ZM39.7281 47.3242H44.5445V48.4658H39.7281V47.3242ZM27.6892 47.3242H37.9225V48.4658H27.6892V47.3242ZM27.6892 44.4703H44.5445V45.6119H27.6892V44.4703ZM27.6892 41.6202H44.5445V42.7618H27.6892V41.6202ZM27.6892 38.7663H44.5445V39.9079H27.6892V38.7663ZM27.6892 35.9163H44.5445V37.0578H27.6892V35.9163Z" fill="#212020"/>
</svg>
