<svg width="91" height="90" viewBox="0 0 91 90" fill="none" xmlns="http://www.w3.org/2000/svg">
<g clip-path="url(#clip0_35_30)">
<path d="M86.9425 14H72.0475C71.1703 14 70.329 14.3444 69.7087 14.9575C69.0884 15.5705 68.74 16.402 68.74 17.269V55.7721C68.227 56.1099 67.7505 56.4989 67.318 56.9329C66.1264 58.2026 65.0442 59.5683 64.0825 61.0159C63.7 61.603 63.3985 62.1233 63.1285 62.5859C62.6871 63.5964 61.9567 64.4574 61.027 65.0632C60.2161 65.4699 59.3384 65.7305 58.435 65.8327C57.8069 65.9285 57.1704 65.9583 56.536 65.9216V37.6436C56.536 37.2012 56.3582 36.777 56.0417 36.4642C55.7252 36.1514 55.296 35.9757 54.8485 35.9757H1.9375C1.48995 35.9757 1.06072 36.1514 0.744257 36.4642C0.427789 36.777 0.25 37.2012 0.25 37.6436V71.0008C0.25 71.4431 0.427789 71.8674 0.744257 72.1802C1.06072 72.4929 1.48995 72.6687 1.9375 72.6687H4.894C5.34155 72.6687 5.77077 72.8444 6.08724 73.1572C6.40371 73.4699 6.5815 73.8942 6.5815 74.3365C6.5815 74.5553 6.62518 74.772 6.71004 74.9741C6.7949 75.1762 6.91927 75.3598 7.07603 75.5143C7.23278 75.6688 7.41885 75.7913 7.62356 75.8746C7.82827 75.9579 8.0476 76.0005 8.269 75.9999H18.25C18.4714 76.0005 18.6907 75.9579 18.8954 75.8746C19.1001 75.7913 19.2862 75.6688 19.443 75.5143C19.5997 75.3598 19.7241 75.1762 19.809 74.9741C19.8938 74.772 19.9375 74.5553 19.9375 74.3365C19.9375 73.8942 20.1153 73.4699 20.4317 73.1572C20.7482 72.8444 21.1774 72.6687 21.625 72.6687H35.125C35.5725 72.6687 36.0018 72.8444 36.3182 73.1572C36.6347 73.4699 36.8125 73.8942 36.8125 74.3365C36.8125 74.5553 36.8562 74.772 36.941 74.9741C37.0259 75.1762 37.1503 75.3598 37.307 75.5143C37.4638 75.6688 37.6498 75.7913 37.8545 75.8746C38.0593 75.9579 38.2786 76.0005 38.5 75.9999H48.4945C48.7159 76.0005 48.9352 75.9579 49.1399 75.8746C49.3446 75.7913 49.5307 75.6688 49.6874 75.5143C49.8442 75.3598 49.9686 75.1762 50.0534 74.9741C50.1383 74.772 50.182 74.5553 50.182 74.3365C50.1814 74.1177 50.2245 73.9009 50.3088 73.6986C50.3931 73.4963 50.517 73.3124 50.6733 73.1574C50.8297 73.0025 51.0154 72.8796 51.2199 72.7957C51.4244 72.7118 51.6436 72.6687 51.865 72.6687H54.826C55.1818 72.6666 55.5276 72.5519 55.8127 72.3414C56.0977 72.1308 56.3071 71.8356 56.41 71.4989C56.858 71.5553 57.3085 71.5895 57.76 71.6012C58.3503 71.5949 58.9396 71.5503 59.524 71.4678C60.6021 71.3401 61.6479 71.0207 62.611 70.5249C63.7732 69.802 64.6936 68.7561 65.257 67.5183C65.512 67.0735 65.812 66.5695 66.157 66.0061C66.9344 64.8448 67.7898 63.7363 68.7175 62.6882V72.7309C68.7175 73.5979 69.0659 74.4294 69.6862 75.0425C70.3065 75.6555 71.1478 75.9999 72.025 75.9999H86.92C87.3577 76.0029 87.7917 75.9199 88.1968 75.7558C88.6018 75.5918 88.9699 75.3498 89.2797 75.0441C89.5894 74.7384 89.8347 74.3749 90.0013 73.9748C90.1678 73.5746 90.2523 73.1458 90.25 72.7131V17.269C90.25 16.402 89.9015 15.5705 89.2812 14.9575C88.6609 14.3444 87.8197 14 86.9425 14ZM30.5035 38.9779C30.5035 38.5355 30.6813 38.1113 30.9977 37.7985C31.3142 37.4857 31.7434 37.31 32.191 37.31H53.44C53.8875 37.31 54.3167 37.4857 54.6332 37.7985C54.9497 38.1113 55.1275 38.5355 55.1275 38.9779V66.9979C55.1275 67.4403 54.9497 67.8645 54.6332 68.1773C54.3167 68.4901 53.8875 68.6658 53.44 68.6658H32.2C31.7524 68.6658 31.3232 68.4901 31.0067 68.1773C30.6903 67.8645 30.5125 67.4403 30.5125 66.9979L30.5035 38.9779ZM16.081 41.3129C17.4949 41.248 18.9074 41.4673 20.233 41.9574C21.5587 42.4475 22.7701 43.1982 23.7939 44.1642C24.8176 45.1302 25.6325 46.2913 26.1893 47.5775C26.7461 48.8636 27.0331 50.248 27.0331 51.6469C27.0331 53.0459 26.7461 54.4303 26.1893 55.7164C25.6325 57.0025 24.8176 58.1637 23.7939 59.1297C22.7701 60.0957 21.5587 60.8464 20.233 61.3365C18.9074 61.8266 17.4949 62.0458 16.081 61.981C14.6671 62.0458 13.2546 61.8266 11.9289 61.3365C10.6032 60.8464 9.39188 60.0957 8.36811 59.1297C7.34435 58.1637 6.52944 57.0025 5.97267 55.7164C5.4159 54.4303 5.12884 53.0459 5.12884 51.6469C5.12884 50.248 5.4159 48.8636 5.97267 47.5775C6.52944 46.2913 7.34435 45.1302 8.36811 44.1642C9.39188 43.1982 10.6032 42.4475 11.9289 41.9574C13.2546 41.4673 14.6671 41.248 16.081 41.3129ZM55.15 71.3166H1.6585V69.9823H55.15V71.3166ZM68.2 61.1271C67.0069 62.3966 65.9231 63.7623 64.96 65.21C64.6299 65.7261 64.3118 66.2495 64.006 66.78C63.5646 67.7905 62.8342 68.6515 61.9045 69.2573C61.0936 69.664 60.2159 69.9246 59.3125 70.0268C58.3945 70.1548 57.4629 70.1548 56.545 70.0268V67.3582C56.6665 67.3582 56.7835 67.3849 56.905 67.3849C57.4953 67.3786 58.0846 67.334 58.669 67.2514C59.7471 67.1238 60.7929 66.8043 61.756 66.3085C62.9183 65.587 63.8376 64.5406 64.3975 63.302C64.6555 62.8572 64.9555 62.3531 65.2975 61.7898C66.2159 60.4235 67.242 59.1312 68.3665 57.9248C68.4835 57.8151 68.605 57.7068 68.731 57.6001V60.6289C68.551 60.7979 68.3575 60.9536 68.2 61.1271ZM89.0755 33.107C89.0755 33.8678 88.7697 34.5975 88.2253 35.1355C87.681 35.6735 86.9427 35.9757 86.173 35.9757H72.9025C72.1327 35.9757 71.3944 35.6735 70.8501 35.1355C70.3058 34.5975 70 33.8678 70 33.107V17.9851C70 17.2242 70.3058 16.4946 70.8501 15.9566C71.3944 15.4186 72.1327 15.1164 72.9025 15.1164H86.1639C86.9337 15.1164 87.672 15.4186 88.2163 15.9566C88.7607 16.4946 89.0665 17.2242 89.0665 17.9851L89.0755 33.107ZM9.1645 51.0665C10.2419 51.5654 11.3812 51.9213 12.553 52.1251C12.6073 52.4881 12.7181 52.8407 12.8815 53.1703C11.9481 53.9526 11.1194 54.8493 10.4155 55.8388C10.227 56.1363 10.1019 56.4688 10.0479 56.8157C9.99391 57.1627 10.0121 57.5168 10.1014 57.8566C10.1907 58.1964 10.3493 58.5145 10.5673 58.7916C10.7853 59.0687 11.0583 59.2989 11.3695 59.4681C12.0157 59.8088 12.7696 59.8912 13.4755 59.6983C14.1815 59.5055 14.7855 59.0521 15.163 58.4318C15.7351 57.3214 16.1572 56.1416 16.4185 54.9226C16.7439 54.8796 17.0619 54.7928 17.3635 54.6647C18.1803 55.5886 19.1222 56.3968 20.1625 57.0664C20.8087 57.407 21.5626 57.4895 22.2685 57.2966C22.9744 57.1038 23.5785 56.6504 23.956 56.0301C24.1454 55.7327 24.2713 55.4002 24.3261 55.0529C24.3808 54.7057 24.3632 54.3511 24.2743 54.0108C24.1853 53.6705 24.027 53.3518 23.809 53.0742C23.591 52.7966 23.3179 52.5659 23.0065 52.3964C21.9113 51.888 20.7519 51.5275 19.5595 51.3245C19.5486 50.9584 19.4724 50.597 19.3345 50.2571C20.252 49.4719 21.0655 48.5753 21.7555 47.5885C21.9449 47.2911 22.0708 46.9586 22.1256 46.6113C22.1803 46.2641 22.1627 45.9095 22.0738 45.5692C21.9848 45.2289 21.8265 44.9102 21.6085 44.6326C21.3905 44.355 21.1174 44.1243 20.806 43.9548C20.1598 43.6141 19.4059 43.5317 18.7 43.7245C17.994 43.9174 17.39 44.3708 17.0125 44.9911C16.4878 45.9905 16.0931 47.0515 15.838 48.1489C15.397 48.1864 14.9668 48.304 14.569 48.4958C13.8088 47.6803 12.9486 46.9617 12.0085 46.3565C11.362 46.0169 10.6085 45.9351 9.90291 46.1279C9.1973 46.3206 8.59325 46.7733 8.215 47.3928C8.01885 47.6916 7.88746 48.0274 7.82908 48.3789C7.77071 48.7304 7.78662 49.09 7.87582 49.4352C7.96502 49.7803 8.12558 50.1034 8.34736 50.3842C8.56915 50.6649 8.84737 50.8973 9.1645 51.0665ZM14.317 50.6218C14.5928 50.1721 15.0321 49.8437 15.545 49.7039C16.058 49.5641 16.6055 49.6236 17.0755 49.8701C17.3015 49.9938 17.4997 50.1616 17.658 50.3634C17.8163 50.5652 17.9313 50.7968 17.9962 51.0439C18.061 51.2911 18.0742 51.5487 18.0351 51.8011C17.996 52.0535 17.9053 52.2954 17.7685 52.512C17.495 52.9642 17.0557 53.2947 16.5418 53.4348C16.028 53.5748 15.4793 53.5135 15.01 53.2637C14.7852 53.1399 14.5881 52.9725 14.4307 52.7714C14.2732 52.5703 14.1586 52.3397 14.0939 52.0936C14.0291 51.8475 14.0155 51.591 14.0538 51.3396C14.0922 51.0881 14.1817 50.847 14.317 50.6307V50.6218ZM34.9765 65.9839H49.9525C50.579 65.9839 51.18 65.7379 51.623 65.3C52.0661 64.8621 52.315 64.2682 52.315 63.6489V60.9803C52.315 60.6739 52.2538 60.3704 52.1351 60.0874C52.0163 59.8043 51.8422 59.5472 51.6227 59.3308C51.4033 59.1143 51.1428 58.9427 50.8562 58.8259C50.5696 58.709 50.2625 58.6491 49.9525 58.6497H34.9765C34.6664 58.6491 34.3593 58.709 34.0727 58.8259C33.7861 58.9427 33.5257 59.1143 33.3062 59.3308C33.0868 59.5472 32.9127 59.8043 32.7939 60.0874C32.6751 60.3704 32.614 60.6739 32.614 60.9803V63.6489C32.614 64.2682 32.8629 64.8621 33.3059 65.3C33.749 65.7379 34.3499 65.9839 34.9765 65.9839ZM36.3805 59.9796H48.5305C49.157 59.9796 49.758 60.2256 50.201 60.6635C50.6441 61.1014 50.893 61.6953 50.893 62.3146C50.893 62.9339 50.6441 63.5278 50.201 63.9657C49.758 64.4036 49.157 64.6496 48.5305 64.6496H36.3805C35.7539 64.6496 35.153 64.4036 34.7099 63.9657C34.2669 63.5278 34.018 62.9339 34.018 62.3146C34.018 61.6953 34.2669 61.1014 34.7099 60.6635C35.153 60.2256 35.7539 59.9796 36.3805 59.9796ZM46.6855 55.314H52.315V56.6483H46.6855V55.314ZM32.614 55.314H44.575V56.6483H32.614V55.314ZM32.614 51.9783H52.315V53.3126H32.614V51.9783ZM32.614 48.647H52.315V49.9813H32.614V48.647ZM32.614 45.3113H52.315V46.6456H32.614V45.3113ZM32.614 41.98H52.315V43.3143H32.614V41.98Z" fill="white"/>
</g>
<defs>
<clipPath id="clip0_35_30">
<rect width="90" height="90" fill="white" transform="translate(0.25)"/>
</clipPath>
</defs>
</svg>
