<svg width="91" height="90" viewBox="0 0 91 90" fill="none" xmlns="http://www.w3.org/2000/svg">
<g clip-path="url(#clip0_3_1220)">
<path d="M45.8142 30.3632C43.9756 30.3903 43.4656 31.6111 43.8414 33.7285C43.9297 33.9966 43.93 34.2862 43.8422 34.5545C43.7545 34.8228 43.5833 35.0555 43.354 35.2182C43.1247 35.3809 42.8495 35.465 42.569 35.4579C42.2886 35.4509 42.0179 35.3531 41.797 35.1792C41.6132 35.0646 41.4572 34.91 41.3404 34.7269C41.2236 34.5437 41.149 34.3366 41.122 34.1207C41.095 33.9047 41.1162 33.6854 41.1843 33.4788C41.2523 33.2722 41.3653 33.0835 41.5151 32.9266C42.8348 31.476 43.0853 27.8719 38.6521 24.9571C41.1349 30.8453 36.9074 30.6921 35.0017 34.0259C34.5974 34.9864 34.4002 36.0224 34.4231 37.0654C34.4461 38.1084 34.6886 39.1346 35.1347 40.0762C35.5809 41.0178 36.2204 41.8532 37.0111 42.5273C37.8017 43.2014 38.7255 43.6988 39.7212 43.9866C39.0756 43.546 38.5298 42.9728 38.1197 42.3046C37.7096 41.6365 37.4445 40.8886 37.3418 40.1099C37.2392 39.3313 37.3012 38.5396 37.524 37.7869C37.7467 37.0341 38.1251 36.3373 38.6342 35.7423C38.1868 38.1705 39.596 39.968 41.1528 39.6031C41.5101 39.5535 41.8738 39.5816 42.2194 39.6858C42.565 39.79 42.8843 39.9677 43.1558 40.2069C43.4272 40.4461 43.6445 40.7412 43.7929 41.0723C43.9413 41.4034 44.0173 41.7627 44.0158 42.126C44.115 42.553 44.0562 43.0019 43.8503 43.3883C43.6444 43.7748 43.3056 44.0724 42.8974 44.2253C43.6674 44.2071 44.4245 44.0223 45.1173 43.6834C45.81 43.3445 46.4222 42.8594 46.9124 42.2611C47.4025 41.6628 47.7591 40.9653 47.9578 40.216C48.1566 39.4666 48.1929 38.683 48.0644 37.9182C47.7199 34.143 44.5437 33.3186 45.8142 30.3632ZM88.4335 75.6032L87.257 9.26146C87.0713 7.67601 86.4094 6.18544 85.3597 4.98911C84.3101 3.79277 82.9227 2.9477 81.3832 2.56692C81.3832 2.56692 17.8949 0.0395691 17.2328 -0.000976562C15.8667 0.0308763 14.516 0.295933 13.2379 0.782907C13.1216 0.832462 11.292 1.60283 11.3546 1.89566L79.728 4.63475C81.2569 4.97871 82.625 5.83391 83.6096 7.06101C84.5941 8.28812 85.1371 9.8148 85.1499 11.3924L85.5973 82.933C85.9373 83.023 86.6799 81.7481 87.3241 80.4687C88.0821 78.9621 88.4629 77.2918 88.4335 75.6032ZM75.6929 5.70245L11.6856 3.48595C10.6033 3.44845 9.52467 3.63331 8.51557 4.02927C7.50646 4.42523 6.588 5.02398 5.81616 5.78904C5.04432 6.5541 4.43527 7.46944 4.02614 8.47925C3.61701 9.48907 3.41637 10.5722 3.43644 11.6627L4.70693 76.2429C4.74498 78.2192 5.50528 80.112 6.84237 81.559C8.17945 83.0061 9.99942 83.9059 11.954 84.0863L75.3663 89.9654C76.4774 90.0681 77.5975 89.935 78.6544 89.5748C79.7113 89.2146 80.6814 88.6352 81.5022 87.874C82.3229 87.1129 82.976 86.1868 83.4194 85.1557C83.8628 84.1246 84.0866 83.0114 84.0763 81.8878L83.3918 13.6494C83.3745 11.5804 82.5637 9.59818 81.1289 8.11716C79.6941 6.63615 77.7464 5.77096 75.6929 5.70245ZM26.4438 20.799C26.4702 21.0061 26.453 21.2165 26.3933 21.4165C26.3336 21.6165 26.2327 21.8016 26.0973 21.9597C25.9618 22.1178 25.7947 22.2454 25.607 22.3342C25.4193 22.4229 25.2151 22.4709 25.0078 22.4748C24.8095 22.4732 24.6136 22.4301 24.4327 22.3483C24.2518 22.2664 24.0898 22.1476 23.9568 21.9994C23.8239 21.8511 23.7231 21.6767 23.6606 21.4871C23.5982 21.2975 23.5756 21.0969 23.5942 20.8981C23.573 20.6922 23.5947 20.4842 23.6579 20.2873C23.7212 20.0905 23.8245 19.909 23.9614 19.7547C24.0982 19.6003 24.2656 19.4764 24.4527 19.3909C24.6398 19.3055 24.8426 19.2603 25.0481 19.2582C25.244 19.2544 25.4386 19.2928 25.6186 19.3708C25.7987 19.4488 25.9602 19.5645 26.0923 19.7104C26.2244 19.8562 26.3241 20.0287 26.3847 20.2165C26.4453 20.4042 26.4655 20.6028 26.4438 20.799ZM24.3144 17.0688H24.9675L21.9837 22.4748H21.3395L24.3144 17.0688ZM21.2724 20.2809C21.0745 20.2786 20.8791 20.2351 20.6987 20.153C20.5184 20.0708 20.3568 19.9519 20.2244 19.8037C20.092 19.6556 19.9915 19.4813 19.9293 19.292C19.8672 19.1028 19.8447 18.9026 19.8632 18.7041C19.8428 18.499 19.8648 18.2918 19.9281 18.0958C19.9914 17.8998 20.0944 17.7191 20.2307 17.5653C20.367 17.4115 20.5336 17.288 20.7199 17.2025C20.9061 17.117 21.108 17.0715 21.3127 17.0688C21.5095 17.0648 21.7049 17.1034 21.8856 17.1819C22.0664 17.2604 22.2284 17.377 22.3606 17.5239C22.4929 17.6707 22.5924 17.8444 22.6524 18.0332C22.7123 18.222 22.7315 18.4216 22.7084 18.6185C22.735 18.8267 22.7174 19.0383 22.6569 19.2392C22.5964 19.4401 22.4943 19.6259 22.3574 19.7842C22.2205 19.9425 22.0518 20.0699 21.8625 20.1578C21.6731 20.2457 21.4675 20.2923 21.259 20.2944L21.2724 20.2809ZM30.801 69.224C30.792 69.4048 30.747 69.582 30.6688 69.745C30.5905 69.9079 30.4805 70.0534 30.3453 70.1727C30.2101 70.2921 30.0525 70.3828 29.8818 70.4397C29.7111 70.4965 29.5308 70.5182 29.3516 70.5034L23.8894 70.143C23.541 70.1032 23.2212 69.9298 22.9963 69.6587C22.7715 69.3877 22.6589 69.04 22.6819 68.6876C22.705 68.3352 22.8618 68.0053 23.12 67.7663C23.3781 67.5272 23.7177 67.3975 24.0684 67.404L29.5305 67.7644C29.7102 67.7756 29.8858 67.8232 30.0468 67.9041C30.2078 67.9851 30.351 68.0979 30.4679 68.2358C30.5848 68.3736 30.6729 68.5338 30.727 68.7066C30.7812 68.8795 30.8003 69.0616 30.7831 69.242L30.801 69.224ZM43.3269 75.1482C42.0212 75.0748 40.7954 74.4916 39.91 73.5225C39.0245 72.5534 38.5492 71.2748 38.585 69.9583C38.5677 69.2869 38.6997 68.62 38.9714 68.0065C39.2431 67.3931 39.6475 66.8485 40.1552 66.4128C40.6131 66.0383 41.1487 65.7722 41.7225 65.6342C42.2963 65.4961 42.8935 65.4897 43.4701 65.6154C44.5985 65.8963 45.5993 66.5537 46.3093 67.4806C47.0193 68.4075 47.3967 69.5492 47.3799 70.7197C47.4125 71.2826 47.3327 71.8464 47.1453 72.3777C46.958 72.909 46.6668 73.3972 46.289 73.8133C45.9112 74.2295 45.4544 74.5652 44.9457 74.8006C44.437 75.0361 43.8865 75.1665 43.3269 75.1842V75.1482ZM63.4041 71.9946C63.3806 72.339 63.2297 72.6619 62.9812 72.8997C62.7327 73.1374 62.4047 73.2726 62.062 73.2786H61.9681L60.4516 73.1795V74.7337C60.4528 74.8831 60.4244 75.0313 60.3682 75.1696C60.312 75.3079 60.229 75.4335 60.124 75.5392C60.0191 75.6448 59.8944 75.7284 59.7571 75.785C59.6197 75.8417 59.4726 75.8702 59.3242 75.869C59.0262 75.8647 58.7412 75.7454 58.528 75.5356C58.4236 75.4303 58.3411 75.3052 58.285 75.1676C58.229 75.0299 58.2005 74.8825 58.2014 74.7337V73.0398L56.5059 72.9272C56.1562 72.899 55.8308 72.7363 55.5971 72.4729C55.3634 72.2094 55.2394 71.8655 55.2509 71.5124C55.2625 71.1593 55.4086 70.8243 55.6589 70.5768C55.9093 70.3294 56.2446 70.1886 56.5954 70.1836H56.6849L58.2014 70.2827V68.7375C58.2359 68.4633 58.3685 68.2112 58.5744 68.0285C58.7803 67.8457 59.0453 67.7449 59.3198 67.7449C59.5942 67.7449 59.8592 67.8457 60.0651 68.0285C60.271 68.2112 60.4036 68.4633 60.4381 68.7375V70.4314L62.1336 70.544C62.3128 70.5531 62.4883 70.5982 62.6498 70.6768C62.8113 70.7554 62.9556 70.8657 63.074 71.0014C63.1924 71.137 63.2827 71.2952 63.3394 71.4666C63.3961 71.638 63.4181 71.8145 63.4041 71.9946ZM57.9867 51.5506C57.9868 51.2092 58.0587 50.8717 58.1979 50.5604C58.337 50.2491 58.54 49.9711 58.7937 49.7446C59.0473 49.5181 59.3458 49.3483 59.6693 49.2465C59.9929 49.1447 60.3342 49.1131 60.6708 49.1539C60.9951 49.1166 61.3235 49.1484 61.6348 49.2473C61.946 49.3462 62.2331 49.51 62.4774 49.728C62.7217 49.946 62.9177 50.2133 63.0527 50.5125C63.1877 50.8118 63.2587 51.1363 63.2609 51.465C63.2605 51.807 63.1885 52.1451 63.0496 52.4572C62.9106 52.7693 62.7079 53.0484 62.4546 53.2763C62.2013 53.5042 61.9032 53.6757 61.5796 53.7796C61.2561 53.8836 60.9144 53.9177 60.5768 53.8797C60.252 53.9122 59.924 53.8764 59.6136 53.7745C59.3032 53.6727 59.0172 53.507 58.7737 53.2881C58.5303 53.0691 58.3346 52.8016 58.1991 52.5026C58.0636 52.2035 57.9913 51.8793 57.9867 51.5506ZM66.4864 57.9028C67.5063 42.2972 48.7757 41.234 49.1291 56.6368L17.7473 54.3528L17.2999 22.9929C22.8695 30.6921 32.4428 24.9707 30.8547 15.7578L67.7345 17.6319L68.2892 58.0334L66.4864 57.9028ZM33.8564 9.41012C33.5133 9.40957 33.183 9.5414 32.9334 9.77853C32.6838 10.0156 32.5338 10.3401 32.5144 10.6851L35.1135 10.7707C35.1307 10.5957 35.1107 10.4191 35.0549 10.2526C34.9992 10.086 34.9088 9.93334 34.7899 9.80465C34.671 9.67596 34.5263 9.57423 34.3653 9.50621C34.2044 9.43819 34.0309 9.40543 33.8564 9.41012ZM60.6484 52.8706C61.2613 52.8706 61.655 52.3255 61.655 51.5191C61.655 50.8433 61.3642 50.1675 60.6484 50.1675C59.9326 50.1675 59.615 50.8613 59.615 51.5191C59.615 52.2894 59.9774 52.8706 60.6484 52.8706ZM25.0302 21.7991C25.3746 21.7991 25.5446 21.4432 25.5446 20.8575C25.5446 20.2719 25.4059 19.916 25.0302 19.916C24.6544 19.916 24.5068 20.3349 24.5068 20.8575C24.5068 21.3801 24.6812 21.7991 25.0302 21.7991ZM21.2903 17.749C20.9324 17.749 20.7624 18.1635 20.7624 18.6861C20.7624 19.2087 20.9458 19.6276 21.2992 19.6276C21.6527 19.6276 21.8092 19.2717 21.8092 18.6861C21.8092 18.1004 21.6661 17.749 21.2903 17.749ZM43.1793 67.0751C42.9971 67.0457 42.8134 67.0276 42.629 67.021C42.0586 67.0188 41.5051 67.2163 41.0633 67.5797C40.7224 67.8797 40.4524 68.2526 40.2728 68.6711C40.0933 69.0897 40.0088 69.5433 40.0254 69.9989C39.999 70.9284 40.326 71.8331 40.9396 72.528C41.5532 73.223 42.4071 73.6558 43.3269 73.7381C43.6934 73.7175 44.0521 73.6238 44.3823 73.4626C44.7126 73.3013 45.0078 73.0756 45.2508 72.7987C45.4938 72.5217 45.6798 72.1989 45.798 71.849C45.9162 71.4991 45.9643 71.129 45.9394 70.7602C45.9505 69.9247 45.6854 69.1091 45.1857 68.4419C44.686 67.7748 43.9801 67.2939 43.1793 67.0751Z" fill="white"/>
</g>
<defs>
<clipPath id="clip0_3_1220">
<rect width="90" height="90" fill="white" transform="translate(0.5)"/>
</clipPath>
</defs>
</svg>
