<svg width="77" height="77" viewBox="0 0 77 77" fill="none" xmlns="http://www.w3.org/2000/svg">
<g clip-path="url(#clip0_290_90)">
<path d="M38.7689 25.9773C37.1959 26.0004 36.7596 27.0449 37.0811 28.8565C37.1566 29.0859 37.1569 29.3336 37.0818 29.5632C37.0067 29.7927 36.8602 29.9918 36.6641 30.131C36.4679 30.2702 36.2324 30.3421 35.9925 30.3361C35.7526 30.3301 35.521 30.2464 35.332 30.0976C35.1747 29.9995 35.0413 29.8673 34.9414 29.7106C34.8414 29.5539 34.7776 29.3767 34.7545 29.192C34.7314 29.0072 34.7496 28.8196 34.8078 28.6428C34.866 28.4661 34.9627 28.3047 35.0908 28.1704C36.2199 26.9293 36.4342 23.8458 32.6413 21.3521C34.7655 26.3897 31.1487 26.2587 29.5182 29.1109C29.1723 29.9327 29.0036 30.819 29.0232 31.7114C29.0428 32.6037 29.2504 33.4817 29.6321 34.2873C30.0137 35.0928 30.5609 35.8076 31.2374 36.3843C31.9138 36.9611 32.7041 37.3866 33.5561 37.6328C33.0037 37.2558 32.5367 36.7654 32.1858 36.1938C31.835 35.6222 31.6082 34.9823 31.5204 34.3161C31.4325 33.65 31.4856 32.9726 31.6762 32.3286C31.8667 31.6846 32.1904 31.0885 32.626 30.5794C32.2433 32.6569 33.4489 34.1947 34.7808 33.8825C35.0865 33.84 35.3977 33.8642 35.6934 33.9533C35.989 34.0424 36.2622 34.1944 36.4945 34.3991C36.7267 34.6037 36.9126 34.8562 37.0396 35.1395C37.1665 35.4228 37.2316 35.7302 37.2303 36.041C37.3152 36.4063 37.2648 36.7903 37.0887 37.121C36.9125 37.4516 36.6227 37.7063 36.2735 37.8371C36.9322 37.8215 37.58 37.6634 38.1727 37.3734C38.7653 37.0834 39.2891 36.6684 39.7085 36.1566C40.1278 35.6447 40.4329 35.0479 40.6029 34.4068C40.773 33.7657 40.8041 33.0953 40.6941 32.441C40.3994 29.2111 37.6819 28.5057 38.7689 25.9773ZM75.2321 64.6826L74.2255 7.92355C74.0667 6.56711 73.5004 5.29185 72.6023 4.26832C71.7043 3.24478 70.5173 2.52178 69.2002 2.196C69.2002 2.196 14.8824 0.0337125 14.316 -0.000976562C13.1472 0.0262753 11.9915 0.253046 10.8981 0.669679C10.7986 0.712077 9.23324 1.37117 9.28682 1.6217L67.7841 3.96514C69.0921 4.25942 70.2626 4.99109 71.105 6.04095C71.9473 7.0908 72.4118 8.39697 72.4228 9.74665L72.8056 70.9536C73.0964 71.0307 73.7318 69.9399 74.2829 68.8453C74.9315 67.5564 75.2573 66.1273 75.2321 64.6826ZM64.3318 4.87862L9.57004 2.98228C8.64402 2.9502 7.72122 3.10836 6.85787 3.44712C5.99453 3.78589 5.20873 4.29816 4.54838 4.95271C3.88803 5.60726 3.36695 6.39038 3.01692 7.25433C2.66689 8.11829 2.49523 9.04498 2.5124 9.97791L3.59937 65.2299C3.63193 66.9207 4.28241 68.5401 5.42636 69.7781C6.57031 71.0162 8.12739 71.786 9.79968 71.9403L64.0524 76.9702C65.003 77.0581 65.9613 76.9443 66.8655 76.6361C67.7698 76.3279 68.5998 75.8322 69.302 75.181C70.0042 74.5298 70.563 73.7375 70.9423 72.8553C71.3216 71.9731 71.5131 71.0207 71.5043 70.0594L70.9187 11.6777C70.9038 9.90751 70.2101 8.21163 68.9826 6.94454C67.755 5.67745 66.0887 4.93723 64.3318 4.87862ZM22.1965 17.7945C22.2191 17.9717 22.2044 18.1518 22.1533 18.3229C22.1022 18.494 22.0159 18.6523 21.9 18.7876C21.7841 18.9229 21.6412 19.032 21.4806 19.108C21.32 19.1839 21.1453 19.2249 20.9679 19.2283C20.7982 19.227 20.6307 19.1901 20.4759 19.12C20.3211 19.05 20.1825 18.9484 20.0687 18.8215C19.955 18.6947 19.8687 18.5454 19.8153 18.3832C19.7619 18.221 19.7425 18.0494 19.7585 17.8793C19.7403 17.7032 19.7589 17.5253 19.813 17.3568C19.8671 17.1884 19.9555 17.0331 20.0726 16.9011C20.1897 16.769 20.3329 16.663 20.493 16.5899C20.6531 16.5168 20.8266 16.4781 21.0023 16.4763C21.17 16.4731 21.3364 16.5059 21.4905 16.5727C21.6446 16.6394 21.7827 16.7384 21.8958 16.8632C22.0088 16.9879 22.0941 17.1356 22.1459 17.2962C22.1978 17.4568 22.215 17.6267 22.1965 17.7945ZM20.3747 14.6031H20.9335L18.3806 19.2283H17.8295L20.3747 14.6031ZM17.7721 17.3513C17.6027 17.3494 17.4356 17.3121 17.2813 17.2418C17.1269 17.1716 16.9887 17.0698 16.8754 16.9431C16.7621 16.8163 16.6762 16.6672 16.623 16.5053C16.5698 16.3433 16.5506 16.1721 16.5664 16.0023C16.5489 15.8268 16.5678 15.6496 16.6219 15.4818C16.6761 15.3141 16.7642 15.1595 16.8808 15.028C16.9975 14.8964 17.14 14.7907 17.2993 14.7176C17.4587 14.6444 17.6314 14.6054 17.8065 14.6031C17.9749 14.5998 18.1421 14.6328 18.2967 14.6999C18.4514 14.7671 18.5899 14.8669 18.7031 14.9925C18.8162 15.1181 18.9014 15.2667 18.9527 15.4283C19.004 15.5898 19.0204 15.7606 19.0006 15.929C19.0233 16.1072 19.0083 16.2882 18.9566 16.4601C18.9048 16.632 18.8175 16.7909 18.7003 16.9263C18.5832 17.0618 18.4389 17.1707 18.2769 17.246C18.1149 17.3212 17.9389 17.361 17.7606 17.3628L17.7721 17.3513ZM25.9243 59.2248C25.9166 59.3795 25.8781 59.5311 25.8112 59.6705C25.7442 59.81 25.6501 59.9344 25.5344 60.0365C25.4187 60.1386 25.2839 60.2163 25.1378 60.2649C24.9918 60.3135 24.8376 60.3321 24.6843 60.3195L20.0111 60.0111C19.713 59.977 19.4393 59.8286 19.247 59.5968C19.0546 59.3649 18.9583 59.0674 18.978 58.7659C18.9977 58.4644 19.1319 58.1821 19.3528 57.9777C19.5736 57.7732 19.8642 57.6622 20.1642 57.6677L24.8374 57.976C24.9911 57.9857 25.1413 58.0263 25.279 58.0956C25.4168 58.1649 25.5393 58.2614 25.6393 58.3794C25.7393 58.4973 25.8147 58.6343 25.861 58.7822C25.9074 58.9301 25.9237 59.0859 25.909 59.2403L25.9243 59.2248ZM36.6409 64.2933C35.5238 64.2305 34.4751 63.7316 33.7175 62.9024C32.96 62.0733 32.5533 60.9794 32.5839 59.8531C32.5691 59.2786 32.6821 58.7081 32.9145 58.1832C33.147 57.6584 33.493 57.1925 33.9273 56.8197C34.3191 56.4993 34.7773 56.2716 35.2682 56.1535C35.7591 56.0355 36.2701 56.03 36.7634 56.1375C37.7289 56.3778 38.5851 56.9402 39.1925 57.7333C39.8 58.5263 40.1228 59.5031 40.1085 60.5045C40.1363 60.9861 40.0681 61.4684 39.9078 61.923C39.7475 62.3776 39.4984 62.7952 39.1751 63.1513C38.8519 63.5073 38.4611 63.7945 38.0259 63.996C37.5906 64.1974 37.1197 64.309 36.6409 64.3241V64.2933ZM53.8181 61.5953C53.798 61.8899 53.6689 62.1662 53.4563 62.3696C53.2437 62.573 52.9631 62.6887 52.6699 62.6938H52.5895L51.292 62.609V63.9387C51.293 64.0665 51.2688 64.1933 51.2207 64.3116C51.1726 64.4299 51.1016 64.5374 51.0118 64.6278C50.922 64.7182 50.8153 64.7897 50.6978 64.8382C50.5803 64.8866 50.4545 64.911 50.3275 64.91C50.0725 64.9063 49.8287 64.8042 49.6462 64.6248C49.557 64.5347 49.4863 64.4276 49.4384 64.3099C49.3904 64.1921 49.3661 64.066 49.3669 63.9387V62.4895L47.9163 62.3931C47.6171 62.369 47.3387 62.2298 47.1387 62.0044C46.9388 61.7791 46.8327 61.4848 46.8426 61.1827C46.8524 60.8806 46.9774 60.594 47.1916 60.3823C47.4058 60.1706 47.6927 60.0501 47.9928 60.0458H48.0694L49.3669 60.1306V58.8086C49.3964 58.574 49.5099 58.3583 49.686 58.202C49.8622 58.0457 50.0889 57.9594 50.3237 57.9594C50.5585 57.9594 50.7852 58.0457 50.9614 58.202C51.1375 58.3583 51.251 58.574 51.2805 58.8086V60.2578L52.7311 60.3542C52.8844 60.3619 53.0345 60.4006 53.1727 60.4678C53.3109 60.535 53.4343 60.6294 53.5356 60.7455C53.637 60.8615 53.7142 60.9969 53.7627 61.1435C53.8112 61.2901 53.83 61.4412 53.8181 61.5953ZM49.1831 44.1043C49.1832 43.8122 49.2448 43.5235 49.3638 43.2571C49.4828 42.9908 49.6566 42.7529 49.8736 42.5591C50.0906 42.3653 50.3459 42.2201 50.6228 42.133C50.8996 42.0459 51.1916 42.0189 51.4796 42.0538C51.757 42.0218 52.038 42.0491 52.3043 42.1337C52.5706 42.2183 52.8162 42.3584 53.0252 42.5449C53.2343 42.7314 53.402 42.9601 53.5174 43.2161C53.6329 43.4722 53.6936 43.7498 53.6956 44.031C53.6952 44.3237 53.6336 44.6129 53.5147 44.8799C53.3959 45.147 53.2224 45.3857 53.0057 45.5807C52.789 45.7756 52.5339 45.9224 52.2571 46.0113C51.9803 46.1003 51.688 46.1295 51.3992 46.097C51.1213 46.1247 50.8406 46.0941 50.5751 46.007C50.3095 45.9198 50.0649 45.7781 49.8565 45.5908C49.6482 45.4035 49.4808 45.1746 49.3649 44.9187C49.249 44.6628 49.1871 44.3855 49.1831 44.1043ZM56.4551 49.5389C57.3277 36.1874 41.3026 35.2778 41.605 48.4558L14.7561 46.5017L14.3734 19.6716C19.1384 26.2587 27.329 21.3636 25.9702 13.4815L57.5229 15.0849L57.9975 49.6507L56.4551 49.5389ZM28.5384 8.05074C28.2448 8.05027 27.9622 8.16306 27.7487 8.36593C27.5351 8.5688 27.4068 8.84635 27.3902 9.14152L29.6139 9.21476C29.6286 9.0651 29.6115 8.91401 29.5638 8.77151C29.5161 8.62902 29.4388 8.49838 29.337 8.38828C29.2353 8.27818 29.1115 8.19115 28.9738 8.13295C28.8361 8.07475 28.6877 8.04673 28.5384 8.05074ZM51.4604 45.2336C51.9848 45.2336 52.3216 44.7672 52.3216 44.0773C52.3216 43.4991 52.0728 42.921 51.4604 42.921C50.848 42.921 50.5763 43.5145 50.5763 44.0773C50.5763 44.7364 50.8863 45.2336 51.4604 45.2336ZM20.987 18.6502C21.2817 18.6502 21.4272 18.3457 21.4272 17.8446C21.4272 17.3436 21.3085 17.0391 20.987 17.0391C20.6655 17.0391 20.5392 17.3975 20.5392 17.8446C20.5392 18.2917 20.6885 18.6502 20.987 18.6502ZM17.7874 15.1851C17.4812 15.1851 17.3357 15.5397 17.3357 15.9868C17.3357 16.4339 17.4927 16.7924 17.795 16.7924C18.0974 16.7924 18.2313 16.4879 18.2313 15.9868C18.2313 15.4858 18.1089 15.1851 17.7874 15.1851ZM36.5146 57.3863C36.3588 57.3611 36.2016 57.3457 36.0438 57.3401C35.5558 57.3382 35.0823 57.5071 34.7043 57.818C34.4127 58.0747 34.1816 58.3938 34.028 58.7518C33.8744 59.1099 33.8021 59.498 33.8163 59.8878C33.7937 60.6831 34.0735 61.4571 34.5984 62.0516C35.1234 62.6462 35.854 63.0165 36.6409 63.0869C36.9544 63.0693 37.2613 62.9891 37.5439 62.8512C37.8264 62.7132 38.079 62.5201 38.2869 62.2832C38.4948 62.0462 38.6539 61.77 38.7551 61.4706C38.8562 61.1713 38.8973 60.8547 38.8761 60.5392C38.8856 59.8243 38.6587 59.1265 38.2312 58.5557C37.8037 57.9849 37.1998 57.5735 36.5146 57.3863Z" fill="#212020"/>
</g>
<defs>
<clipPath id="clip0_290_90">
<rect width="77" height="77" fill="white"/>
</clipPath>
</defs>
</svg>
