<svg id="Layer_1" data-name="Layer 1" xmlns="http://www.w3.org/2000/svg" viewBox="0 0 57 57"><defs><style>.cls-1{fill:#fff;}</style></defs><path class="cls-1" d="M277,367h57v57H277Zm35.91,51.65h6.46a4.49,4.49,0,0,0,4.76-4.77q0-20.31,0-40.61a5.45,5.45,0,0,0-.1-1.21,4.45,4.45,0,0,0-4.66-3.54H290a6,6,0,0,0-1.27.1,4.5,4.5,0,0,0-3.53,4.63V413.8a4.54,4.54,0,0,0,4.87,4.85h6.37v3.69h3v-3.66H310v.64c0,.87,0,1.74,0,2.61,0,.15.14.41.22.42.89,0,1.79,0,2.73,0Z" transform="translate(-277 -367)"/><path d="M312.91,418.65v3.71c-.94,0-1.84,0-2.73,0-.08,0-.22-.27-.22-.42,0-.87,0-1.74,0-2.61v-.64H299.46v3.66h-3v-3.69h-6.37a4.54,4.54,0,0,1-4.87-4.85V373.25a4.5,4.5,0,0,1,3.53-4.63,6,6,0,0,1,1.27-.1h29.33a4.45,4.45,0,0,1,4.66,3.54,5.45,5.45,0,0,1,.1,1.21q0,20.31,0,40.61a4.49,4.49,0,0,1-4.76,4.77h-6.46Zm-24.33-36v31.13c0,1.12.41,1.53,1.54,1.53h29.17c1.11,0,1.5-.39,1.5-1.5q0-15.3,0-30.6v-.56Zm16.14-3.29h14.72c.94,0,1.35-.41,1.35-1.35,0-1.56,0-3.11,0-4.67,0-1.09-.37-1.47-1.46-1.47H290.06c-1.08,0-1.48.4-1.48,1.47v4.55c0,1.08.4,1.47,1.48,1.47Z" transform="translate(-277 -367)"/><path class="cls-1" d="M288.58,382.64h32.21v.56q0,15.3,0,30.6c0,1.11-.39,1.5-1.5,1.5H290.12c-1.13,0-1.54-.41-1.54-1.53V382.64ZM307,404.37c.22-.09.34-.13.45-.19a6,6,0,0,0,1.4-9.65c-1.49-1.39-2.7-2.88-2.37-5.18a5.11,5.11,0,0,0-2.34,1.82,5.63,5.63,0,0,0-.74,5.36,5.72,5.72,0,0,1-2.84-3.11,8.88,8.88,0,0,0-1.83,5,6.15,6.15,0,0,0,3.08,5.71.84.84,0,0,0,1,0,5.51,5.51,0,0,0,2.51-3.45c.12-.46.17-.95.26-1.54A6,6,0,0,1,307,404.37Zm-6.75,6.73h8.94c0-.57,0-1.08,0-1.59s-.11-.6-.58-.6c-2.61,0-5.22,0-7.82,0h-.55Z" transform="translate(-277 -367)"/><path class="cls-1" d="M304.72,379.35H290.06c-1.08,0-1.48-.39-1.48-1.47v-4.55c0-1.07.4-1.47,1.48-1.47h29.27c1.09,0,1.46.38,1.46,1.47,0,1.56,0,3.11,0,4.67,0,.94-.41,1.35-1.35,1.35Z" transform="translate(-277 -367)"/><path d="M307,404.37a6,6,0,0,0-1.41-5.22c-.09.59-.14,1.08-.26,1.54a5.51,5.51,0,0,1-2.51,3.45.84.84,0,0,1-1,0,6.15,6.15,0,0,1-3.08-5.71,8.88,8.88,0,0,1,1.83-5,5.72,5.72,0,0,0,2.84,3.11,5.63,5.63,0,0,1,.74-5.36,5.11,5.11,0,0,1,2.34-1.82c-.33,2.3.88,3.79,2.37,5.18a6,6,0,0,1-1.4,9.65C307.33,404.24,307.21,404.28,307,404.37Z" transform="translate(-277 -367)"/><path d="M300.24,411.1v-2.18h.55c2.6,0,5.21,0,7.82,0,.47,0,.61.14.58.6s0,1,0,1.59Z" transform="translate(-277 -367)"/></svg>