<svg width="20" height="20" viewBox="0 0 20 20" fill="none" xmlns="http://www.w3.org/2000/svg">
<path d="M19.3188 6.135C19.2731 5.13688 19.115 4.45562 18.8831 3.85937C18.6438 3.24312 18.3231 2.72 17.8019 2.19875C17.2806 1.6775 16.7581 1.35688 16.1413 1.1175C15.545 0.885625 14.8631 0.7275 13.8656 0.681875C12.8656 0.635625 12.5463 0.625 10 0.625C7.45375 0.625 7.13438 0.635625 6.135 0.68125C5.13688 0.726875 4.45562 0.885 3.85937 1.11688C3.24312 1.35625 2.72 1.67688 2.19875 2.19813C1.6775 2.71938 1.35688 3.24187 1.1175 3.85875C0.885625 4.455 0.7275 5.13688 0.681875 6.13438C0.635625 7.13438 0.625 7.45375 0.625 10C0.625 12.5463 0.635625 12.8656 0.68125 13.865C0.726875 14.8631 0.885 15.5444 1.11688 16.1406C1.35625 16.7569 1.67688 17.28 2.19813 17.8012C2.71938 18.3225 3.24187 18.6431 3.85875 18.8825C4.455 19.1144 5.13688 19.2725 6.13438 19.3181C7.13438 19.3644 7.45375 19.375 10 19.375C12.5463 19.375 12.8656 19.3644 13.865 19.3188C14.8631 19.2731 15.5444 19.115 16.1406 18.8831C16.7569 18.6438 17.28 18.3231 17.8012 17.8019C18.3225 17.2806 18.6431 16.7581 18.8825 16.1413C19.1144 15.545 19.2725 14.8631 19.3181 13.8656C19.3644 12.8656 19.375 12.5463 19.375 10C19.375 7.45375 19.3644 7.13438 19.3188 6.135ZM17.6312 13.7881C17.5894 14.7019 17.4369 15.1988 17.3088 15.5288C17.1388 15.9663 16.9356 16.2787 16.6075 16.6069C16.2794 16.935 15.9669 17.1381 15.5294 17.3081C15.1988 17.4363 14.7025 17.5894 13.7887 17.6306C12.8006 17.6756 12.5037 17.685 10.0006 17.685C7.4975 17.685 7.20063 17.6756 6.2125 17.6306C5.29875 17.5887 4.80188 17.4363 4.47188 17.3081C4.03438 17.1381 3.72188 16.935 3.39375 16.6069C3.06563 16.2787 2.8625 15.9663 2.6925 15.5288C2.56438 15.1981 2.41125 14.7019 2.37 13.7881C2.325 12.7994 2.31562 12.5031 2.31562 10C2.31562 7.49687 2.325 7.2 2.37 6.21187C2.41187 5.29812 2.56438 4.80125 2.6925 4.47125C2.8625 4.03375 3.06563 3.72125 3.39375 3.39313C3.72188 3.065 4.03438 2.86187 4.47188 2.69187C4.8025 2.56375 5.29875 2.41063 6.2125 2.36938C7.20125 2.32438 7.4975 2.315 10.0006 2.315C12.5037 2.315 12.8006 2.32438 13.7887 2.36938C14.7025 2.41125 15.1994 2.56375 15.5294 2.69187C15.9669 2.86187 16.2794 3.065 16.6075 3.39313C16.9356 3.72125 17.1388 4.03375 17.3088 4.47125C17.4369 4.80187 17.59 5.29812 17.6312 6.21187C17.6762 7.20062 17.6856 7.49687 17.6856 10C17.6856 12.5031 17.6762 12.8 17.6312 13.7881ZM10 5.18563C7.34125 5.18563 5.18563 7.34125 5.18563 10C5.18563 12.6588 7.34125 14.8144 10 14.8144C12.6588 14.8144 14.8144 12.6588 14.8144 10C14.8144 7.34125 12.6588 5.18563 10 5.18563ZM10 13.125C8.27437 13.125 6.875 11.7256 6.875 10C6.875 8.27437 8.27437 6.875 10 6.875C11.7256 6.875 13.125 8.27437 13.125 10C13.125 11.7256 11.7256 13.125 10 13.125ZM15.0044 3.87063C14.3831 3.87063 13.8794 4.37438 13.8794 4.99563C13.8794 5.61688 14.3831 6.12062 15.0044 6.12062C15.6256 6.12062 16.1294 5.61688 16.1294 4.99563C16.1294 4.37438 15.6256 3.87063 15.0044 3.87063Z" fill="white"/>
</svg>
