<svg width="131" height="34" viewBox="0 0 131 34" fill="none" xmlns="http://www.w3.org/2000/svg">
<path d="M0.199951 34V0.799995H15.95L21 16.9L22.05 22.35H23.05L24.2 16.85L29.6 0.799995H44.25V34H34.5499V16.9L35.25 6.05H33.95L31 15.5L24.35 34H18.15L11.9 15.65L9.09995 6H7.69995L8.69995 16.85V34H0.199951Z" fill="white"/>
<path d="M73.1433 34L70.7433 27.3H57.6933L55.3933 34H46.3933L58.5433 0.799995H71.9433L83.7433 34H73.1433ZM61.2433 20.65H66.9433L70.2433 21.9L68.3433 19.5L65.3933 6.7L64.6933 2.75H64.0933L63.4433 6.75L60.0933 19.5L58.1933 21.95L61.2433 20.65Z" fill="white"/>
<path d="M86.0476 34V0.799995H101.798L106.848 16.9L107.898 22.35H108.898L110.048 16.85L115.448 0.799995H130.098V34H120.398V16.9L121.098 6.05H119.798L116.848 15.5L110.198 34H103.998L97.7476 15.65L94.9476 6H93.5476L94.5476 16.85V34H86.0476Z" fill="white"/>
</svg>
