<svg width="77" height="77" viewBox="0 0 77 77" fill="none" xmlns="http://www.w3.org/2000/svg">
<g clip-path="url(#clip0_290_91)">
<path d="M45.3068 42.2499L45.2837 42.246L31.9011 44.1788V44.4983L45.2798 42.5656L53.6959 43.9131L53.6805 43.5897L45.3068 42.2499ZM23.5928 49.9075L31.6277 48.5177L31.57 41.8033L23.5928 42.8004V49.9075ZM30.2957 43.2971C30.5228 43.2971 30.7076 43.6012 30.7076 43.9824C30.7076 44.3635 30.5151 44.66 30.2879 44.66C30.0608 44.66 29.8837 44.3558 29.8837 43.9824C29.8837 43.6089 30.0685 43.2971 30.2957 43.2971ZM35.651 44.8679L31.9088 45.4454L31.9126 45.7688L35.651 45.1913V44.8679ZM18.5801 47.8247L19.5965 47.6668V47.3473L18.5801 47.5013V47.8247ZM18.5801 46.4233L19.5965 46.277V45.9574L18.5801 46.1038V46.4233ZM53.3725 30.03L63.6751 30.2572V17.2056L53.3725 18.095V30.03ZM54.3235 18.9805L62.7242 18.2413V29.3139L54.3235 29.1291V18.9805ZM18.5801 49.3801L19.5965 49.2145V48.895L18.5801 49.0605V49.3801ZM1.8326 34.4537L2.79895 34.546V19.5965L1.8326 19.8198V34.4537ZM9.4094 19.6619L3.3726 19.558V34.573L9.4094 34.2842V19.6619ZM8.2544 33.3256L4.56995 33.4834V20.79H8.31985L8.2544 33.3256ZM15.7157 33.9377L15.8427 19.7813L9.80595 19.6773L9.85215 34.265L15.7157 33.9377ZM14.7532 20.79L14.7147 33.006L11.0302 33.2062L10.9994 20.79H14.7532ZM5.33225 64.5376L5.20905 45.1759L2.0559 44.198V62.2429L5.33225 64.5376ZM31.9242 47.2087L35.651 46.6004V46.2808L31.9204 46.8853L31.9242 47.2087ZM33.187 49.8921L33.8569 50.0923L35.651 49.7651V49.4456L33.187 49.8921ZM26.3378 50.793L30.4111 52.1251C31.1577 52.3675 31.9559 52.4035 32.7211 52.2291L36.7636 51.2858C36.7718 51.2842 36.7793 51.2799 36.7848 51.2737C36.7904 51.2674 36.7938 51.2595 36.7944 51.2512C36.7948 51.2427 36.7924 51.2343 36.7875 51.2274C36.7827 51.2204 36.7756 51.2152 36.7675 51.2127L31.9165 49.7651L26.3378 50.793ZM31.9396 48.8488L35.651 48.1981V47.8786L31.9357 48.5292L31.9396 48.8488ZM18.5801 44.8024L19.5965 44.6677V44.3481L18.5801 44.4829V44.8024ZM25.8913 54.7509C25.7689 54.613 25.6229 54.4983 25.46 54.412C25.2174 54.297 25.009 54.1205 24.8556 53.9C24.6181 53.4579 24.4881 52.9662 24.4761 52.4645C24.4641 51.9629 24.5703 51.4654 24.7863 51.0125L24.8325 50.87L24.975 50.9085L25.41 51.0356H25.5062L24.8479 50.82L31.4199 49.6111H31.4891L31.6277 49.588V48.8449L23.6082 50.2271L23.5851 50.0962V59.6326L25.7989 59.1206C25.6758 58.3852 25.7326 57.6309 25.9644 56.9222C26.18 56.0521 26.3494 55.3014 25.8913 54.7509ZM34.265 55.4169C34.3189 55.2552 34.5153 55.2321 35.035 55.1667C35.5548 55.1012 36.5249 54.9857 36.6135 54.6585C36.8455 53.7865 36.9429 52.8841 36.9022 51.9827C35.0391 52.701 33.0658 53.0917 31.0695 53.1377C30.059 52.9689 29.0717 52.682 28.1281 52.283C27.1074 51.8992 26.0723 51.5551 25.025 51.2512C24.8475 51.6403 24.7624 52.0652 24.7764 52.4927C24.7905 52.9201 24.9032 53.3386 25.1058 53.7152C25.2267 53.9026 25.3992 54.051 25.6025 54.1425C25.8036 54.2405 25.981 54.3811 26.1222 54.5545C26.6882 55.2282 26.4803 56.0945 26.2608 57.0069C26.0193 57.7119 25.9754 58.4695 26.1338 59.1976L30.7153 61.0341C32.0208 60.8663 33.2977 60.5231 34.5114 60.0138C34.4931 59.2782 34.4327 58.5442 34.3304 57.8154C34.1693 57.0258 34.1472 56.2141 34.265 55.4169ZM36.009 44.66V50.7468L36.8869 51.0086C36.9341 51.0302 36.9741 51.0648 37.0021 51.1086C37.0301 51.1523 37.0449 51.2031 37.0447 51.255V51.4707C37.0401 51.5134 37.0284 51.555 37.01 51.5938H37.037L37.1255 51.6593C37.3158 52.5519 37.2827 53.4776 37.0293 54.3543L61.2843 62.0543L61.0341 49.665L36.009 44.66ZM34.7 58.135C34.736 58.4225 34.7668 58.7086 34.7924 58.9935L46.6889 63.5134L54.7739 60.6067L41.0602 56.2601L34.7 58.135ZM0 0V77H77V0H0ZM45.3029 37.141L39.936 37.7107V36.5942L45.2721 36.0245L76.0375 38.9928V40.4134L45.3029 37.141ZM76.049 42.1151L45.3029 38.346L39.9476 38.9235V38.0303L45.3376 37.4451L76.0452 40.733L76.049 42.1151ZM45.2837 35.7087L39.9591 36.2747V35.2929L45.3299 34.8694L76.049 37.4605V38.6771L45.2837 35.7087ZM45.3299 34.5538L39.9591 34.9772V33.7837L45.3222 33.4873L76.0413 35.7203V37.141L45.3299 34.5538ZM45.3299 33.1716L40.0015 33.4642V32.4324L45.2875 32.2322L76.0529 34.1572V35.4046L45.3299 33.1716ZM52.745 30.6768V17.529L64.295 16.5126V30.9309L52.745 30.6768ZM71.6677 0.95095L45.3415 6.3679L15.3615 0.95095H71.6677ZM26.6227 10.395V9.59805L39.5241 10.9379L39.6781 32.1128V32.3669L39.628 38.9504L26.6381 40.3595V29.156L37.6029 28.8365L37.73 11.4768L26.6227 10.395ZM1.5169 34.65V19.5657L3.1185 19.1999V19.25L9.7251 19.3616L16.17 19.4695L16.1007 26.2955L16.17 33.7645L26.3071 33.2871V34.5576L0.9548 36.2554V34.65H1.5169ZM0.95095 36.575L26.3032 34.8771V36.0822L0.95095 38.2112V36.575ZM0.95095 38.5269L26.3032 36.3979V37.5529L0.95095 39.9052V38.5269ZM8.2159 42.1151L8.00415 42.3885L0.95095 43.1585V41.8379L8.16585 41.1218L8.2159 42.1151ZM9.56725 42.9583C11.4602 42.5794 13.4074 42.5598 15.3076 42.9005C15.3653 43.2047 12.7088 43.4665 11.4229 43.582C9.58495 43.9094 7.71173 43.9922 5.852 43.8284C5.852 43.4819 8.3622 43.12 9.56725 42.9583ZM10.4142 40.552L9.3093 40.2864V39.9014L10.3257 39.7166L8.9166 39.4817L26.3032 37.8686V38.9389L10.4142 40.552ZM26.3032 39.3201V40.398L9.4094 42.2306V40.9948L9.83675 40.9563L9.91375 40.9794L10.8108 40.86L26.3032 39.3201ZM0.95095 40.2094L8.085 39.5433L8.1081 39.9976V40.3827L8.1312 40.7984L0.9317 41.5299L0.95095 40.2094ZM76.1414 76.0529H0.95095V62.6626L1.8249 62.4701L1.7402 62.4085V61.215L0.95095 61.3806V59.6211L1.7402 59.4671V59.1437L0.95095 59.3015V57.9464L1.7402 57.7923V57.4805L0.95095 57.6345V56.0444L1.7402 55.902V55.5824L0.95095 55.7249V54.285L1.7402 54.1503V53.8268L0.95095 53.9654V52.2714L1.7402 52.1405V51.821L0.95095 51.948V50.5621L1.7402 50.4388V50.1193L0.95095 50.2425V48.972L1.7402 48.8565V48.537L0.95095 48.6524V47.1625L1.7402 47.0585V46.739L0.95095 46.8429V45.3029L1.7402 45.2105V44.891L0.95095 44.9834V43.4434L8.05035 42.6734L8.12735 42.7157L1.19735 43.4857L4.43905 44.5714H4.39285L5.13205 44.7986L5.2591 44.841L5.33225 44.8679L19.3886 43.12L19.5965 43.093V42.7735L18.9728 42.8505L15.1728 41.965L9.5788 42.5733L9.5403 42.5271L45.2798 38.6501L76.049 42.4231V43.7899L45.3029 39.6819L31.3736 41.3528L32.0205 41.4375H31.8972V41.5916L45.3029 39.9822L76.0683 44.094V45.43L57.4304 42.6926V43.0122L76.0683 45.7496V47.1702L57.4304 44.1864V44.4752L57.5883 44.533L76.0683 47.4897V48.6678L70.3549 47.6822V48.0018L76.076 48.9874V50.5274L70.301 49.4417V49.7612L76.076 50.8508V52.0328L70.301 50.9316V51.2512L76.0991 52.3561V53.977L70.2663 52.7835V53.103L76.1068 54.3004V55.5747L70.2394 54.3042V54.6276L76.1145 55.8981V57.6191L70.2009 56.2446V56.5681L76.1222 57.9464V58.9589L70.1778 57.6037V58.2929L69.5656 58.597L76.1414 60.1678V76.0529ZM61.8618 61.9966L69.7735 58.0888L70.0238 47.4012L61.5884 49.6149L61.8618 61.9966ZM61.5461 49.28L64.1487 48.6062H64.1757L64.8879 48.4176L66.9091 47.894L70.3549 47.0046L70.455 46.97L57.365 44.8063L56.93 44.9218L56.1253 44.8101L56.0136 44.6754L56.0983 44.5984L54.4968 44.3328L54.3273 44.402L53.6998 44.275V44.2018L45.045 42.762L35.6241 44.2057L37.5105 44.5907H37.4104L38.319 44.7716H38.4114L41.3336 45.3607H41.2643L42.1537 45.5378H42.2152L47.2472 46.5503L45.9305 46.3001L51.8518 47.4782L61.2227 49.3647H61.3305L61.6 49.28H61.5461ZM38.885 44.4213C38.8459 44.4153 38.8103 44.3955 38.7845 44.3655C38.7588 44.3355 38.7446 44.2972 38.7446 44.2577C38.7446 44.2181 38.7588 44.1799 38.7845 44.1499C38.8103 44.1199 38.8459 44.1001 38.885 44.094L43.9131 43.324C44.1316 43.2941 44.3512 43.2735 44.5714 43.2625L45.9459 45.6957L38.885 44.4213ZM60.0407 48.1981L46.3732 45.7572L44.9526 43.2393C45.2865 43.2459 45.6196 43.2742 45.9498 43.324L66.1199 46.7082C66.1642 46.7231 66.2008 46.755 66.2218 46.7968C66.2427 46.8387 66.2462 46.8871 66.2315 46.9315C66.2219 46.9569 66.2069 46.9801 66.1877 46.9993C66.1685 47.0185 66.1453 47.0335 66.1199 47.0431L61.4999 48.1519C61.0285 48.2681 60.5379 48.2838 60.06 48.1981H60.0407ZM23.4311 42.3769L30.7846 41.4298L27.9741 41.0564L20.5474 41.8495L23.4311 42.3769ZM18.5801 56.1176L19.5965 55.9136V55.5901L18.5801 55.7942V56.1176ZM18.5801 51.1857L19.5965 51.0086V50.6852L18.5801 50.8624V51.1857ZM18.5801 52.8566L19.5965 52.6718V52.3484L18.5801 52.5333V52.8566ZM18.5801 54.4929L19.5965 54.2927V53.9693L18.5801 54.1695V54.4929ZM23.1308 42.7658L19.9122 42.1652V58.1619L23.0615 59.5864L23.1308 42.7658ZM18.5801 58.7548L19.8313 58.4776L19.5965 58.3698V57.4189L18.5801 57.6345V58.7548ZM12.859 62.7896L18.249 61.4306V43.6706L12.705 44.352L12.859 62.7896ZM17.325 44.9411L17.4482 46.0691L13.8061 46.6158L13.6136 45.4608L17.325 44.9411ZM5.775 45.1875L5.95595 64.653L12.551 62.8705L12.2238 44.4174L5.775 45.1875ZM7.35735 47.4705L7.1841 46.3155L10.8916 45.7611L10.9956 46.8968L7.35735 47.4705ZM53.4996 43.1469L53.7344 43.1624L53.7806 44.0286L53.7652 44.2211L54.312 44.3328L54.6931 44.1749L54.6892 44.0979L54.5737 44.0709V43.2124L55.3591 43.1084H55.3669L56.0599 43.2085L56.1946 43.2047L56.2408 44.5869L56.1176 44.6946L56.1599 44.7485L56.9261 44.8563L57.546 44.6946V44.6253L57.3342 44.5483V42.246L56.6489 42.2114L55.7403 42.427V42.4886L56.2292 42.5541L56.2216 42.8967L54.593 42.7119L54.5853 41.9688L53.9308 41.8841L53.2417 42.042V42.092L53.7383 42.1729L53.746 42.8428L53.515 42.9198L53.4996 43.1469ZM53.6574 42.2229L53.1608 42.1421V42.0651L45.3068 40.9139L45.2837 40.9101L31.8857 42.7042L31.8895 43.0199L45.2837 41.2296L53.6613 42.4617L53.6574 42.2229Z" fill="#212020"/>
</g>
<defs>
<clipPath id="clip0_290_91">
<rect width="77" height="77" fill="white"/>
</clipPath>
</defs>
</svg>
