<svg id="Layer_1" data-name="Layer 1" xmlns="http://www.w3.org/2000/svg" viewBox="0 0 415.41 522"><defs><style>.cls-1,.cls-2,.cls-3{fill:#212020;stroke:#212020;stroke-miterlimit:10;}.cls-1{stroke-width:10px;}.cls-2{stroke-width:4px;}.cls-3{stroke-width:7px;}</style></defs><path class="cls-1" d="M-402.64,292.45a9.25,9.25,0,0,1-9.25-9.25v-45a9.26,9.26,0,0,1,9.25-9.26,9.26,9.26,0,0,1,9.25,9.26v45A9.25,9.25,0,0,1-402.64,292.45Z" transform="translate(729.5 -15.51)"/><path class="cls-1" d="M-484.82,292.45a9.26,9.26,0,0,1-9.26-9.25v-45a9.27,9.27,0,0,1,9.26-9.26,9.26,9.26,0,0,1,9.25,9.26v45A9.25,9.25,0,0,1-484.82,292.45Z" transform="translate(729.5 -15.51)"/><path class="cls-2" d="M-574.21,126.5h-17.71V102.62a29.07,29.07,0,0,0-29-29h-71.51V92.09h71.51a10.54,10.54,0,0,1,10.52,10.53v23.89h-20.35a26.63,26.63,0,0,0-26.61,26.6v18.37a9.25,9.25,0,0,0,9.25,9.25h91.29a9.25,9.25,0,0,0,9.25-9.25V153.11A26.64,26.64,0,0,0-574.21,126.5Zm8.11,35.73h-72.79v-9.11a8.12,8.12,0,0,1,8.11-8.11h56.57a8.11,8.11,0,0,1,8.1,8.11v9.11Z" transform="translate(729.5 -15.51)"/><path class="cls-3" d="M-640.2,288.26c-5.11,0-9.26-1.56-9.26-3.5v-82c0-1.93,4.15-3.5,9.26-3.5s9.25,1.57,9.25,3.5v82C-630.95,286.7-635.09,288.26-640.2,288.26Z" transform="translate(729.5 -15.51)"/><path class="cls-3" d="M-602.5,288.26c-5.11,0-9.25-1.56-9.25-3.5v-82c0-1.93,4.14-3.5,9.25-3.5s9.26,1.57,9.26,3.5v82C-593.24,286.7-597.38,288.26-602.5,288.26Z" transform="translate(729.5 -15.51)"/><path class="cls-3" d="M-564.79,288.26c-5.11,0-9.25-1.56-9.25-3.5v-82c0-1.93,4.14-3.5,9.25-3.5s9.25,1.57,9.25,3.5v82C-555.54,286.7-559.68,288.26-564.79,288.26Z" transform="translate(729.5 -15.51)"/><path class="cls-1" d="M-328.34,438.59h-12.2V20.51H-703V438.59H-724.5V512h49.24v11.31a9.26,9.26,0,0,0,9.26,9.25,9.25,9.25,0,0,0,9.25-9.25V512h269.92v11.31a9.25,9.25,0,0,0,9.25,9.25,9.25,9.25,0,0,0,9.25-9.25V512h49.25V438.59Zm-30.71,0h-75.43V39H-359V438.59ZM-684.53,39H-453V438.59H-684.53Zm346.94,443.38v11.05h-30.74v-8.55a9.26,9.26,0,0,0-9.25-9.26,9.26,9.26,0,0,0-9.25,9.26v8.55H-656.75v-8.55a9.26,9.26,0,0,0-9.25-9.26,9.27,9.27,0,0,0-9.26,9.26v8.55H-706V457.09h368.4v25.3Z" transform="translate(729.5 -15.51)"/><path class="cls-1" d="M-389.84,165.52a9.26,9.26,0,0,1-9.25-9.26V73a9.25,9.25,0,0,1,9.25-9.25A9.25,9.25,0,0,1-380.58,73v83.27A9.26,9.26,0,0,1-389.84,165.52Z" transform="translate(729.5 -15.51)"/><path class="cls-1" d="M-489.76,198.83a9.27,9.27,0,0,1-9.26-9.26V73a9.26,9.26,0,0,1,9.26-9.25A9.25,9.25,0,0,1-480.51,73V189.57A9.26,9.26,0,0,1-489.76,198.83Z" transform="translate(729.5 -15.51)"/></svg>