<svg width="90" height="90" viewBox="0 0 90 90" fill="none" xmlns="http://www.w3.org/2000/svg">
<g clip-path="url(#clip0_35_34)">
<path d="M70.9065 43.712H85.563V47.7757H70.9065V43.712ZM70.9065 48.8771H85.563V52.9409H70.9065V48.8771ZM70.9065 53.9164H85.563V57.9801H70.9065V53.9164ZM70.9065 58.9511H85.563V63.0149H70.9065V58.9511ZM70.9425 65.1997C70.9425 65.5745 71.0164 65.9457 71.16 66.292C71.3036 66.6384 71.5141 66.9531 71.7794 67.2181C72.0448 67.4832 72.3598 67.6934 72.7065 67.8369C73.0532 67.9804 73.4247 68.0542 73.8 68.0542H82.8C83.5575 68.053 84.2836 67.7519 84.8192 67.2168C85.3549 66.6817 85.6563 65.9564 85.6575 65.1997V63.9904H70.9425V65.1997ZM85.734 22.004H85.185V20.4891C85.1838 20.307 85.1109 20.1327 84.982 20.004C84.8532 19.8753 84.6787 19.8024 84.4965 19.8013H71.973C71.7908 19.8024 71.6163 19.8753 71.4875 20.004C71.3586 20.1327 71.2857 20.307 71.2845 20.4891V22.004H70.875C70.315 22.0034 69.7604 22.1131 69.2428 22.3267C68.7253 22.5404 68.2549 22.8539 67.8587 23.2493C67.4626 23.6446 67.1483 24.1141 66.9338 24.6309C66.7194 25.1477 66.609 25.7016 66.609 26.2611V67.4069C61.038 59.122 60.309 59.522 59.7825 59.7918C59.256 60.0615 59.373 60.6279 59.4945 61.6708C59.6705 63.0223 59.7322 64.3862 59.679 65.7481C59.5665 68.1711 59.4765 70.2659 58.23 71.0975C57.625 71.3566 56.9735 71.4902 56.3153 71.4902C55.657 71.4902 55.0056 71.3566 54.4005 71.0975C53.5061 70.8024 52.6701 70.3536 51.93 69.7714L52.074 69.8658L64.5435 46.1125L64.2015 45.128L50.328 71.6505H0.36006L0.88656 72.8013H50.544L51.6105 70.7739C52.4123 71.2643 53.2725 71.6525 54.171 71.9292C55.1187 72.2724 56.125 72.4252 57.132 72.3787C57.6853 72.3354 58.219 72.1546 58.6845 71.8528C60.282 70.7829 60.3855 68.4902 60.4845 65.8335C60.5439 64.4266 60.4807 63.0173 60.2955 61.6214C60.251 61.2994 60.2239 60.9753 60.2145 60.6504C62.7589 63.2418 64.9621 66.1468 66.771 69.2949C67.0195 70.1871 67.5533 70.9737 68.291 71.5345C69.0288 72.0954 69.9299 72.3997 70.857 72.4012H85.707C86.2715 72.4054 86.8313 72.2974 87.3537 72.0837C87.8762 71.8699 88.3509 71.5546 88.7503 71.156C89.1497 70.7574 89.4659 70.2835 89.6804 69.7618C89.8949 69.2402 90.0036 68.6811 90 68.1171V26.2611C90 25.7016 89.8896 25.1477 89.6752 24.6309C89.4607 24.1141 89.1464 23.6446 88.7502 23.2493C88.354 22.8539 87.8837 22.5404 87.3662 22.3267C86.8486 22.1131 86.294 22.0034 85.734 22.004ZM86.49 65.7031C86.49 66.5687 86.1458 67.3988 85.5331 68.0109C84.9204 68.6229 84.0894 68.9667 83.223 68.9667H73.2465C72.38 68.9667 71.5491 68.6229 70.9364 68.0109C70.3237 67.3988 69.9795 66.5687 69.9795 65.7031V28.1986C69.9795 27.333 70.3237 26.5029 70.9364 25.8908C71.5491 25.2788 72.38 24.9349 73.2465 24.9349H83.223C84.0894 24.9349 84.9204 25.2788 85.5331 25.8908C86.1458 26.5029 86.49 27.333 86.49 28.1986V65.7031ZM41.1885 32.8557C41.2554 32.8805 41.3293 32.8779 41.3942 32.8484C41.4592 32.8189 41.5098 32.765 41.535 32.6984L43.4025 27.5737C43.4147 27.5404 43.4202 27.5049 43.4186 27.4695C43.4171 27.434 43.4085 27.3992 43.3935 27.367C43.3784 27.3349 43.3572 27.306 43.3309 27.2821C43.3047 27.2581 43.2739 27.2396 43.2405 27.2276C43.1737 27.2044 43.1004 27.2083 43.0364 27.2386C42.9724 27.2689 42.9229 27.323 42.8985 27.3894L41.031 32.5141C41.0076 32.5803 41.0109 32.653 41.0403 32.7168C41.0697 32.7807 41.1229 32.8305 41.1885 32.8557ZM44.946 34.7797L48.4515 30.6036C48.4747 30.5765 48.4924 30.5451 48.5033 30.5112C48.5143 30.4772 48.5185 30.4415 48.5156 30.4059C48.5126 30.3704 48.5027 30.3358 48.4863 30.3041C48.4699 30.2725 48.4474 30.2444 48.42 30.2215C48.365 30.1765 48.2944 30.1551 48.2236 30.1618C48.1529 30.1686 48.0876 30.2029 48.042 30.2574L44.532 34.4336C44.487 34.4886 44.4656 34.5591 44.4723 34.6298C44.4791 34.7005 44.5135 34.7657 44.568 34.8112C44.6225 34.8566 44.6927 34.8788 44.7635 34.8729C44.8342 34.867 44.8998 34.8336 44.946 34.7797ZM47.07 37.8006C47.1058 37.8614 47.1639 37.9058 47.2321 37.9243C47.3002 37.9428 47.3729 37.9339 47.4345 37.8995L52.164 35.1753C52.2253 35.1388 52.2697 35.0796 52.2874 35.0105C52.3051 34.9414 52.2947 34.8681 52.2585 34.8067C52.2228 34.7459 52.1646 34.7015 52.0965 34.683C52.0283 34.6645 51.9556 34.6734 51.894 34.7078L47.169 37.432C47.1383 37.4497 47.1113 37.4732 47.0897 37.5014C47.0681 37.5295 47.0522 37.5615 47.043 37.5958C47.0338 37.63 47.0315 37.6657 47.0361 37.7009C47.0408 37.736 47.0523 37.7699 47.07 37.8006ZM48.3975 41.4643C48.4096 41.5345 48.4491 41.5971 48.5073 41.6384C48.5654 41.6797 48.6376 41.6963 48.708 41.6846L54.108 40.736C54.1775 40.7229 54.2391 40.6831 54.2795 40.625C54.3199 40.567 54.3358 40.4955 54.324 40.4259C54.3181 40.3897 54.3049 40.3551 54.2852 40.3242C54.2655 40.2933 54.2397 40.2668 54.2094 40.2461C54.1791 40.2255 54.1449 40.2113 54.1089 40.2043C54.0729 40.1974 54.0358 40.1978 54 40.2056L48.6 41.1451C48.5311 41.1612 48.4713 41.2037 48.4335 41.2634C48.3956 41.323 48.3827 41.3952 48.3975 41.4643ZM20.5875 40.6956L25.9605 41.6441C26.0293 41.6529 26.0988 41.6349 26.1546 41.5939C26.2104 41.5529 26.2484 41.492 26.2605 41.4238C26.2726 41.3556 26.2581 41.2854 26.2198 41.2277C26.1816 41.17 26.1226 41.1291 26.055 41.1136L20.655 40.1696C20.6182 40.1576 20.5791 40.1536 20.5405 40.1579C20.502 40.1623 20.4648 40.1749 20.4316 40.1949C20.3983 40.2149 20.3698 40.2419 20.3479 40.2739C20.326 40.3059 20.3113 40.3423 20.3048 40.3805C20.2983 40.4187 20.3 40.4579 20.31 40.4953C20.32 40.5328 20.338 40.5677 20.3627 40.5976C20.3874 40.6275 20.4182 40.6517 20.4532 40.6686C20.4881 40.6855 20.5262 40.6947 20.565 40.6956H20.5875ZM27.243 37.868C27.2738 37.8857 27.3077 37.8973 27.3429 37.9019C27.378 37.9065 27.4138 37.9042 27.4481 37.895C27.4823 37.8858 27.5144 37.8699 27.5426 37.8484C27.5707 37.8268 27.5943 37.7998 27.612 37.7691C27.6465 37.7076 27.6554 37.635 27.6369 37.5669C27.6184 37.4988 27.5739 37.4407 27.513 37.405L22.788 34.6763C22.7589 34.6477 22.7237 34.626 22.685 34.6129C22.6463 34.5998 22.6051 34.5957 22.5645 34.6008C22.524 34.6059 22.4851 34.6202 22.4509 34.6425C22.4167 34.6648 22.388 34.6946 22.3669 34.7296C22.3459 34.7646 22.3331 34.804 22.3295 34.8446C22.3259 34.8853 22.3316 34.9262 22.3462 34.9644C22.3607 35.0026 22.3837 35.0369 22.4135 35.0649C22.4433 35.0929 22.479 35.1137 22.518 35.1259L27.243 37.868ZM29.745 34.7528C29.7906 34.8072 29.8559 34.8416 29.9266 34.8483C29.9974 34.8551 30.068 34.8336 30.123 34.7887C30.1507 34.7654 30.1734 34.7368 30.1898 34.7046C30.2062 34.6724 30.216 34.6372 30.2185 34.6011C30.221 34.5651 30.2163 34.5289 30.2045 34.4947C30.1927 34.4605 30.1742 34.429 30.15 34.4021L26.64 30.2259C26.62 30.1926 26.5929 30.1639 26.5607 30.142C26.5285 30.12 26.4919 30.1053 26.4535 30.0989C26.415 30.0924 26.3756 30.0943 26.338 30.1045C26.3004 30.1147 26.2654 30.1328 26.2355 30.1578C26.2056 30.1828 26.1814 30.2139 26.1647 30.2491C26.148 30.2842 26.1391 30.3226 26.1386 30.3616C26.1381 30.4005 26.1461 30.4391 26.162 30.4746C26.1778 30.5102 26.2012 30.5419 26.2305 30.5676L29.745 34.7528ZM33.507 32.8467C33.5737 32.8215 33.6277 32.7709 33.6572 32.7061C33.6867 32.6412 33.6894 32.5674 33.6645 32.5006L31.8015 27.3759C31.7771 27.3085 31.7268 27.2537 31.6618 27.2233C31.5968 27.193 31.5225 27.1896 31.455 27.2141C31.3876 27.2385 31.3326 27.2887 31.3023 27.3536C31.2719 27.4185 31.2686 27.4929 31.293 27.5602L33.1605 32.6849C33.1726 32.7183 33.1911 32.749 33.2151 32.7752C33.2391 32.8014 33.268 32.8226 33.3001 32.8377C33.3323 32.8527 33.3672 32.8613 33.4027 32.8628C33.4382 32.8644 33.4736 32.8589 33.507 32.8467ZM37.35 32.1544C37.4209 32.1545 37.4889 32.1267 37.5394 32.077C37.5899 32.0274 37.6188 31.96 37.62 31.8892V26.4544C37.62 26.4189 37.613 26.3839 37.5995 26.3511C37.5859 26.3184 37.566 26.2887 37.5409 26.2636C37.5159 26.2386 37.4861 26.2187 37.4534 26.2052C37.4206 26.1916 37.3855 26.1846 37.35 26.1846C37.3146 26.1846 37.2795 26.1916 37.2467 26.2052C37.2139 26.2187 37.1842 26.2386 37.1591 26.2636C37.134 26.2887 37.1141 26.3184 37.1006 26.3511C37.087 26.3839 37.08 26.4189 37.08 26.4544V31.9072C37.0857 31.9748 37.1166 32.0377 37.1666 32.0836C37.2167 32.1294 37.2822 32.1547 37.35 32.1544ZM21.663 43.2849C21.6351 43.2831 21.6071 43.2879 21.5813 43.2988C21.5556 43.3097 21.5327 43.3265 21.5145 43.3478C21.4926 43.3664 21.4754 43.39 21.4644 43.4166C21.4535 43.4432 21.449 43.472 21.4515 43.5007C21.4515 43.5284 21.457 43.5559 21.4676 43.5815C21.4783 43.6072 21.4938 43.6304 21.5135 43.6501C21.5331 43.6697 21.5564 43.6853 21.5821 43.6959C21.6078 43.7065 21.6353 43.712 21.663 43.712H52.9965C53.0537 43.7111 53.1084 43.6886 53.1495 43.649C53.1708 43.6309 53.1876 43.608 53.1986 43.5823C53.2095 43.5565 53.2143 43.5286 53.2125 43.5007C53.2131 43.4722 53.208 43.4438 53.1973 43.4174C53.1867 43.3909 53.1708 43.3669 53.1506 43.3467C53.1304 43.3266 53.1064 43.3107 53.0799 43.3001C53.0534 43.2894 53.025 43.2843 52.9965 43.2849H47.214C47.0714 40.7625 45.9679 38.3903 44.1299 36.655C42.2919 34.9197 39.8588 33.9528 37.3298 33.9528C34.8008 33.9528 32.3676 34.9197 30.5296 36.655C28.6916 38.3903 27.5881 40.7625 27.4455 43.2849H21.663ZM63.99 44.4087H13.5855L6.10352e-05 71.0391H50.049L63.99 44.4087ZM61.0965 46.3912L55.5885 56.9148H54.594L60.093 46.3912H61.0965ZM59.5845 46.3912L54.0855 56.9148H53.0145L58.5 46.3912H59.5845ZM58.0005 46.3912L52.506 56.9148H51.5115L57.0015 46.3912H58.0005ZM56.493 46.3912L51.003 56.9148H49.95L55.44 46.3912H56.493ZM54.936 46.3912L49.4505 56.9148H48.4515L53.937 46.3912H54.936ZM53.4285 46.3912L47.943 56.9148H46.872L52.353 46.3912H53.4285ZM51.8445 46.3912L46.35 56.9148H45.3555L50.85 46.3912H51.8445ZM49.1445 46.3912L43.6725 56.9148H42.678L48.15 46.3912H49.1445ZM47.637 46.3912L42.1695 56.9148H41.0985L46.5615 46.3912H47.637ZM46.053 46.3912L40.59 56.9148H39.6L45.063 46.3912H46.053ZM44.5455 46.3912L39.087 56.9148H38.0385L43.4925 46.3912H44.5455ZM42.984 46.3912L37.53 56.9148H36.5355L41.985 46.3912H42.984ZM41.4765 46.3912L36.027 56.9148H34.956L40.401 46.3912H41.4765ZM39.8925 46.3912L34.4475 56.9148H33.453L38.8935 46.3912H39.8925ZM37.053 46.3912L31.6125 56.9148H30.6L36.0315 46.3912H37.053ZM35.541 46.3912L30.1095 56.9148H29.0385L34.4655 46.3912H35.541ZM33.957 46.3912L28.53 56.9148H27.531L32.958 46.3912H33.957ZM32.4495 46.3912L27.0495 56.9148H25.9785L31.401 46.3912H32.4495ZM30.8925 46.3912L25.4925 56.9148H24.4755L29.8755 46.3912H30.8925ZM29.385 46.3912L23.985 56.9148H22.896L28.296 46.3912H29.385ZM27.801 46.3912L22.401 56.9148H21.393L26.793 46.3912H27.801ZM24.957 46.3912L19.557 56.9148H18.558L23.958 46.3912H24.957ZM23.4495 46.3912L18.0495 56.9148H16.9785L22.3785 46.3912H23.4495ZM21.8655 46.3912L16.4655 56.9148H15.4755L20.8755 46.3912H21.8655ZM20.358 46.3912L14.958 56.9148H13.9185L19.3185 46.3912H20.358ZM18.7965 46.3912L13.3965 56.9148H12.4155L17.8155 46.3912H18.7965ZM17.289 46.3912L11.8891 56.9148H10.8361L16.2 46.3912H17.289ZM14.706 46.3912H15.705L10.3501 56.9148H9.33305L14.706 46.3912ZM3.07806 69.16L8.45555 58.6365H9.45005L4.07256 69.16H3.07806ZM4.57656 69.16L9.97655 58.6365H11.0476L5.64756 69.16H4.57656ZM6.15156 69.16L11.5515 58.6365H12.546L7.14605 69.16H6.15156ZM7.65005 69.16L13.05 58.6365H14.085L8.68505 69.16H7.65005ZM9.20255 69.16L14.6025 58.6365H15.597L10.1971 69.16H9.20255ZM10.701 69.16L16.101 58.6365H17.172L11.7721 69.16H10.701ZM12.2716 69.16L17.6715 58.6365H18.666L13.266 69.16H12.2716ZM15.102 69.16L20.502 58.6365H21.501L16.101 69.16H15.102ZM16.6005 69.16L22.0005 58.6365H23.085L17.685 69.16H16.6005ZM18.171 69.16L23.571 58.6365H24.57L19.17 69.16H18.171ZM19.674 69.16L25.074 58.6365H26.1225L20.7 69.16H19.674ZM21.222 69.16L26.649 58.6365H27.6435L22.2165 69.16H21.222ZM22.7205 69.16L28.152 58.6365H29.223L23.787 69.16H22.7205ZM24.2955 69.16L29.727 58.6365H30.726L25.2855 69.16H24.2955ZM27.1215 69.16L32.562 58.6365H33.561L28.1115 69.16H27.1215ZM28.62 69.16L34.065 58.6365H35.136L29.7 69.16H28.62ZM30.195 69.16L35.6445 58.6365H36.639L31.185 69.16H30.195ZM31.6935 69.16L37.1475 58.6365H38.196L32.7375 69.16H31.6935ZM33.2415 69.16L38.7 58.6365H39.699L34.236 69.16H33.2415ZM34.74 69.16L40.203 58.6365H41.274L35.811 69.16H34.74ZM36.315 69.16L41.7825 58.6365H42.777L37.3095 69.16H36.315ZM39.015 69.16L44.4915 58.6365H45.45L39.9735 69.16H39.015ZM40.5135 69.16L45.9945 58.6365H47.0655L41.5845 69.16H40.5135ZM42.0885 69.16L47.574 58.6365H48.5685L43.065 69.16H42.0885ZM43.587 69.16L49.077 58.6365H50.1255L44.631 69.16H43.587ZM45.135 69.16L50.6295 58.6365H51.6285L46.1295 69.16H45.135ZM46.6335 69.16L52.1325 58.6365H53.2035L47.7 69.16H46.6335ZM48.2085 69.16L53.712 58.6365H54.7065L49.185 69.16H48.2085Z" fill="white"/>
</g>
<defs>
<clipPath id="clip0_35_34">
<rect width="90" height="90" fill="white"/>
</clipPath>
</defs>
</svg>
