<svg width="77" height="77" viewBox="0 0 77 77" fill="none" xmlns="http://www.w3.org/2000/svg">
<g clip-path="url(#clip0_290_92)">
<path d="M60.6644 37.3981H73.2038V40.8749H60.6644V37.3981ZM60.6644 41.8171H73.2038V45.2939H60.6644V41.8171ZM60.6644 46.1285H73.2038V49.6053H60.6644V46.1285ZM60.6644 50.436H73.2038V53.9128H60.6644V50.436ZM60.6952 55.782C60.6952 56.1027 60.7584 56.4203 60.8813 56.7166C61.0042 57.0129 61.1842 57.2821 61.4112 57.5089C61.6383 57.7357 61.9078 57.9156 62.2044 58.0383C62.501 58.161 62.8189 58.2242 63.1399 58.2242H70.8399C71.488 58.2232 72.1092 57.9656 72.5675 57.5078C73.0258 57.05 73.2837 56.4294 73.2847 55.782V54.7474H60.6952V55.782ZM73.3501 18.8257H72.8804V17.5296C72.8794 17.3738 72.817 17.2248 72.7068 17.1146C72.5965 17.0045 72.4473 16.9422 72.2914 16.9412H61.5768C61.4209 16.9422 61.2717 17.0045 61.1614 17.1146C61.0512 17.2248 60.9888 17.3738 60.9878 17.5296V18.8257H60.6374C60.1583 18.8252 59.6838 18.919 59.241 19.1018C58.7982 19.2847 58.3958 19.5529 58.0569 19.8911C57.7179 20.2294 57.449 20.631 57.2655 21.0732C57.0821 21.5153 56.9876 21.9893 56.9876 22.4679V57.6704C52.2214 50.5822 51.5977 50.9245 51.1472 51.1553C50.6968 51.386 50.7969 51.8706 50.9008 52.7629C51.0513 53.9192 51.1042 55.0861 51.0587 56.2512C50.9624 58.3242 50.8854 60.1165 49.819 60.828C49.3013 61.0496 48.744 61.1639 48.1808 61.1639C47.6176 61.1639 47.0603 61.0496 46.5426 60.828C45.7774 60.5754 45.0621 60.1915 44.429 59.6934L44.5522 59.7742L55.2205 39.4519L54.9279 38.6096L43.0584 61.301H0.307999L0.758449 62.2856H43.2432L44.1556 60.5511C44.8416 60.9707 45.5776 61.3027 46.3463 61.5395C47.1571 61.8332 48.018 61.9639 48.8796 61.9241C49.3529 61.887 49.8095 61.7323 50.2078 61.4741C51.5746 60.5587 51.6631 58.5973 51.7478 56.3243C51.7986 55.1206 51.7445 53.9149 51.5861 52.7206C51.548 52.4451 51.5249 52.1678 51.5168 51.8898C53.6937 54.107 55.5787 56.5923 57.1262 59.2857C57.3388 60.0491 57.7955 60.722 58.4267 61.2018C59.0579 61.6817 59.8289 61.9421 60.622 61.9433H73.327C73.81 61.9469 74.2889 61.8546 74.7359 61.6717C75.1829 61.4888 75.589 61.219 75.9308 60.878C76.2725 60.537 76.543 60.1315 76.7265 59.6852C76.9101 59.2389 77.003 58.7606 76.9999 58.2781V22.4679C76.9999 21.9893 76.9055 21.5153 76.722 21.0732C76.5386 20.631 76.2697 20.2294 75.9307 19.8911C75.5917 19.5529 75.1893 19.2847 74.7466 19.1018C74.3038 18.919 73.8292 18.8252 73.3501 18.8257ZM73.9969 56.2128C73.9969 56.9533 73.7025 57.6635 73.1783 58.1871C72.6541 58.7108 71.9431 59.005 71.2018 59.005H62.6664C61.9251 59.005 61.2141 58.7108 60.69 58.1871C60.1658 57.6635 59.8713 56.9533 59.8713 56.2128V24.1255C59.8713 23.385 60.1658 22.6748 60.69 22.1511C61.2141 21.6275 61.9251 21.3333 62.6664 21.3333H71.2018C71.9431 21.3333 72.6541 21.6275 73.1783 22.1511C73.7025 22.6748 73.9969 23.385 73.9969 24.1255V56.2128ZM35.239 28.11C35.2962 28.1312 35.3595 28.1289 35.415 28.1037C35.4706 28.0785 35.5139 28.0324 35.5355 27.9754L37.1332 23.5909C37.1436 23.5624 37.1483 23.5321 37.147 23.5017C37.1457 23.4714 37.1383 23.4416 37.1255 23.4141C37.1126 23.3866 37.0944 23.3619 37.0719 23.3414C37.0495 23.3209 37.0232 23.3051 36.9946 23.2948C36.9374 23.2749 36.8747 23.2783 36.82 23.3042C36.7652 23.3301 36.7229 23.3764 36.702 23.4332L35.1043 27.8177C35.0842 27.8743 35.0871 27.9366 35.1122 27.9912C35.1374 28.0457 35.1829 28.0884 35.239 28.11ZM38.4538 29.7561L41.4529 26.1831C41.4728 26.16 41.4878 26.1331 41.4973 26.1041C41.5067 26.075 41.5102 26.0444 41.5077 26.014C41.5052 25.9836 41.4967 25.954 41.4827 25.927C41.4686 25.8999 41.4494 25.8758 41.426 25.8562C41.3789 25.8178 41.3185 25.7994 41.2579 25.8052C41.1974 25.811 41.1416 25.8404 41.1026 25.887L38.0996 29.4599C38.0611 29.507 38.0427 29.5673 38.0485 29.6278C38.0543 29.6883 38.0837 29.744 38.1304 29.783C38.177 29.8219 38.2371 29.8408 38.2976 29.8358C38.3581 29.8308 38.4142 29.8021 38.4538 29.7561ZM40.271 32.3406C40.3015 32.3926 40.3513 32.4306 40.4096 32.4464C40.4679 32.4622 40.5301 32.4546 40.5828 32.4252L44.6292 30.0945C44.6816 30.0633 44.7196 30.0126 44.7347 29.9535C44.7499 29.8944 44.741 29.8317 44.71 29.7791C44.6794 29.7271 44.6297 29.6891 44.5714 29.6733C44.5131 29.6575 44.4509 29.6651 44.3982 29.6945L40.3557 32.0252C40.3294 32.0403 40.3063 32.0605 40.2878 32.0846C40.2693 32.1086 40.2557 32.1361 40.2479 32.1654C40.24 32.1946 40.238 32.2252 40.242 32.2553C40.2459 32.2853 40.2558 32.3143 40.271 32.3406ZM41.4067 35.4751C41.4171 35.5352 41.4508 35.5887 41.5006 35.6241C41.5504 35.6594 41.6121 35.6736 41.6724 35.6635L46.2924 34.852C46.3518 34.8408 46.4045 34.8067 46.439 34.7571C46.4736 34.7074 46.4873 34.6462 46.4772 34.5866C46.4721 34.5557 46.4608 34.5261 46.444 34.4997C46.4271 34.4733 46.4051 34.4505 46.3791 34.4329C46.3532 34.4153 46.3239 34.4031 46.2931 34.3971C46.2623 34.3912 46.2306 34.3915 46.2 34.3982L41.58 35.202C41.521 35.2158 41.4699 35.2521 41.4375 35.3032C41.4051 35.3542 41.394 35.416 41.4067 35.4751ZM17.6137 34.8174L22.2106 35.6289C22.2694 35.6364 22.3289 35.621 22.3767 35.5859C22.4244 35.5508 22.4569 35.4988 22.4673 35.4404C22.4777 35.3821 22.4652 35.3221 22.4325 35.2727C22.3998 35.2233 22.3493 35.1883 22.2915 35.1751L17.6715 34.3674C17.6399 34.3571 17.6065 34.3537 17.5735 34.3574C17.5405 34.3611 17.5087 34.3719 17.4803 34.3891C17.4519 34.4062 17.4274 34.4292 17.4087 34.4566C17.39 34.484 17.3774 34.5151 17.3718 34.5478C17.3662 34.5805 17.3678 34.614 17.3763 34.6461C17.3848 34.6781 17.4002 34.708 17.4213 34.7336C17.4425 34.7591 17.4689 34.7799 17.4988 34.7944C17.5286 34.8088 17.5613 34.8167 17.5945 34.8174H17.6137ZM23.3079 32.3983C23.3342 32.4134 23.3632 32.4233 23.3933 32.4272C23.4234 32.4312 23.454 32.4292 23.4833 32.4213C23.5126 32.4135 23.5401 32.3999 23.5642 32.3814C23.5882 32.363 23.6084 32.3399 23.6236 32.3137C23.653 32.261 23.6607 32.1989 23.6448 32.1406C23.629 32.0824 23.591 32.0327 23.5389 32.0021L19.4964 29.6676C19.4715 29.6431 19.4413 29.6245 19.4082 29.6133C19.3751 29.6021 19.3399 29.5986 19.3052 29.603C19.2705 29.6074 19.2372 29.6196 19.2079 29.6387C19.1787 29.6578 19.1541 29.6832 19.1361 29.7132C19.1181 29.7431 19.1072 29.7768 19.1041 29.8116C19.101 29.8464 19.1059 29.8814 19.1183 29.9141C19.1308 29.9467 19.1505 29.9761 19.1759 30C19.2014 30.024 19.232 30.0418 19.2654 30.0522L23.3079 32.3983ZM25.4485 29.733C25.4875 29.7796 25.5433 29.809 25.6038 29.8148C25.6644 29.8205 25.7248 29.8022 25.7719 29.7638C25.7956 29.7438 25.815 29.7194 25.829 29.6918C25.8431 29.6642 25.8514 29.6341 25.8536 29.6033C25.8557 29.5724 25.8516 29.5414 25.8416 29.5122C25.8315 29.4829 25.8157 29.456 25.795 29.433L22.792 25.8601C22.7748 25.8315 22.7516 25.807 22.7241 25.7882C22.6965 25.7694 22.6652 25.7569 22.6324 25.7513C22.5995 25.7458 22.5658 25.7474 22.5336 25.7561C22.5014 25.7648 22.4715 25.7804 22.4459 25.8018C22.4203 25.8231 22.3996 25.8497 22.3853 25.8798C22.371 25.9099 22.3634 25.9428 22.363 25.9761C22.3626 26.0094 22.3694 26.0424 22.383 26.0728C22.3965 26.1033 22.4166 26.1304 22.4416 26.1524L25.4485 29.733ZM28.6671 28.1023C28.7241 28.0807 28.7703 28.0374 28.7956 27.982C28.8208 27.9265 28.8231 27.8633 28.8018 27.8061L27.2079 23.4217C27.187 23.3641 27.144 23.3171 27.0884 23.2911C27.0328 23.2652 26.9692 23.2623 26.9115 23.2832C26.8538 23.3041 26.8068 23.3471 26.7808 23.4026C26.7548 23.4582 26.7519 23.5217 26.7729 23.5794L28.3706 27.9638C28.3809 27.9924 28.3968 28.0186 28.4173 28.0411C28.4378 28.0635 28.4625 28.0817 28.4901 28.0945C28.5176 28.1074 28.5474 28.1147 28.5778 28.116C28.6082 28.1174 28.6385 28.1127 28.6671 28.1023ZM31.955 27.51C32.0156 27.51 32.0738 27.4862 32.117 27.4438C32.1602 27.4013 32.185 27.3436 32.186 27.2831V22.6333C32.186 22.603 32.18 22.5729 32.1684 22.5449C32.1568 22.5169 32.1398 22.4915 32.1183 22.4701C32.0969 22.4487 32.0714 22.4317 32.0434 22.4201C32.0153 22.4085 31.9853 22.4025 31.955 22.4025C31.9246 22.4025 31.8946 22.4085 31.8666 22.4201C31.8385 22.4317 31.8131 22.4487 31.7916 22.4701C31.7702 22.4915 31.7532 22.5169 31.7416 22.5449C31.7299 22.5729 31.724 22.603 31.724 22.6333V27.2985C31.7288 27.3563 31.7553 27.4101 31.7981 27.4493C31.8409 27.4885 31.8969 27.5102 31.955 27.51ZM18.5339 37.0327C18.51 37.0312 18.486 37.0353 18.464 37.0446C18.4419 37.054 18.4224 37.0683 18.4068 37.0866C18.388 37.1025 18.3733 37.1226 18.364 37.1454C18.3546 37.1681 18.3508 37.1928 18.3529 37.2173C18.3529 37.2411 18.3576 37.2646 18.3667 37.2865C18.3758 37.3084 18.3891 37.3284 18.4059 37.3451C18.4227 37.3619 18.4427 37.3752 18.4646 37.3843C18.4866 37.3934 18.5101 37.3981 18.5339 37.3981H45.3414C45.3903 37.3974 45.4371 37.3781 45.4723 37.3442C45.4906 37.3287 45.5049 37.3092 45.5143 37.2871C45.5236 37.2651 45.5277 37.2412 45.5262 37.2173C45.5267 37.1929 45.5223 37.1687 45.5132 37.1461C45.5041 37.1234 45.4905 37.1029 45.4732 37.0856C45.456 37.0684 45.4354 37.0548 45.4127 37.0457C45.3901 37.0366 45.3658 37.0322 45.3414 37.0327H40.3942C40.2722 34.8747 39.328 32.8451 37.7555 31.3604C36.183 29.8758 34.1013 29.0486 31.9376 29.0486C29.7739 29.0486 27.6923 29.8758 26.1198 31.3604C24.5472 32.8451 23.6031 34.8747 23.4811 37.0327H18.5339ZM54.7469 37.9942H11.6231L0 60.778H42.8197L54.7469 37.9942ZM52.2714 39.6903L47.559 48.6938H46.7082L51.4129 39.6903H52.2714ZM50.9778 39.6903L46.2731 48.6938H45.3568L50.05 39.6903H50.9778ZM49.6226 39.6903L44.9218 48.6938H44.0709L48.7679 39.6903H49.6226ZM48.3329 39.6903L43.6359 48.6938H42.735L47.432 39.6903H48.3329ZM47.0008 39.6903L42.3076 48.6938H41.4529L46.1461 39.6903H47.0008ZM45.711 39.6903L41.0179 48.6938H40.1016L44.7909 39.6903H45.711ZM44.3558 39.6903L39.655 48.6938H38.8041L43.505 39.6903H44.3558ZM42.0458 39.6903L37.3642 48.6938H36.5134L41.195 39.6903H42.0458ZM40.7561 39.6903L36.0783 48.6938H35.162L39.8359 39.6903H40.7561ZM39.4009 39.6903L34.727 48.6938H33.88L38.5539 39.6903H39.4009ZM38.1111 39.6903L33.4411 48.6938H32.544L37.2102 39.6903H38.1111ZM36.7752 39.6903L32.109 48.6938H31.2581L35.9205 39.6903H36.7752ZM35.4854 39.6903L30.8231 48.6938H29.9068L34.5653 39.6903H35.4854ZM34.1302 39.6903L29.4717 48.6938H28.6209L33.2755 39.6903H34.1302ZM31.7009 39.6903L27.0462 48.6938H26.18L30.8269 39.6903H31.7009ZM30.4073 39.6903L25.7603 48.6938H24.844L29.4871 39.6903H30.4073ZM29.0521 39.6903L24.409 48.6938H23.5543L28.1974 39.6903H29.0521ZM27.7623 39.6903L23.1423 48.6938H22.226L26.8653 39.6903H27.7623ZM26.4302 39.6903L21.8102 48.6938H20.9401L25.5601 39.6903H26.4302ZM25.1405 39.6903L20.5205 48.6938H19.5888L24.2088 39.6903H25.1405ZM23.7853 39.6903L19.1653 48.6938H18.3029L22.9229 39.6903H23.7853ZM21.3521 39.6903L16.7321 48.6938H15.8774L20.4974 39.6903H21.3521ZM20.0623 39.6903L15.4423 48.6938H14.526L19.146 39.6903H20.0623ZM18.7071 39.6903L14.0871 48.6938H13.2401L17.8601 39.6903H18.7071ZM17.4174 39.6903L12.7974 48.6938H11.908L16.528 39.6903H17.4174ZM16.0814 39.6903L11.4614 48.6938H10.6221L15.2421 39.6903H16.0814ZM14.7917 39.6903L10.1717 48.6938H9.27079L13.86 39.6903H14.7917ZM12.5818 39.6903H13.4365L8.85499 48.6938H7.98489L12.5818 39.6903ZM2.6334 59.1703L7.23414 50.1668H8.08499L3.48425 59.1703H2.6334ZM3.91545 59.1703L8.53544 50.1668H9.45174L4.83175 59.1703H3.91545ZM5.26295 59.1703L9.88294 50.1668H10.7338L6.11379 59.1703H5.26295ZM6.54499 59.1703L11.165 50.1668H12.0505L7.43049 59.1703H6.54499ZM7.87324 59.1703L12.4932 50.1668H13.3441L8.72409 59.1703H7.87324ZM9.15529 59.1703L13.7753 50.1668H14.6916L10.0716 59.1703H9.15529ZM10.4989 59.1703L15.1189 50.1668H15.9698L11.3498 59.1703H10.4989ZM12.9206 59.1703L17.5406 50.1668H18.3953L13.7753 59.1703H12.9206ZM14.2026 59.1703L18.8226 50.1668H19.7505L15.1305 59.1703H14.2026ZM15.5463 59.1703L20.1663 50.1668H21.021L16.401 59.1703H15.5463ZM16.8322 59.1703L21.4522 50.1668H22.3492L17.71 59.1703H16.8322ZM18.1566 59.1703L22.7997 50.1668H23.6505L19.0074 59.1703H18.1566ZM19.4386 59.1703L24.0856 50.1668H25.0019L20.3511 59.1703H19.4386ZM20.7861 59.1703L25.4331 50.1668H26.2878L21.6331 59.1703H20.7861ZM23.2039 59.1703L27.8586 50.1668H28.7133L24.0509 59.1703H23.2039ZM24.486 59.1703L29.1445 50.1668H30.0608L25.41 59.1703H24.486ZM25.8335 59.1703L30.4958 50.1668H31.3467L26.6805 59.1703H25.8335ZM27.1155 59.1703L31.7817 50.1668H32.6788L28.0087 59.1703H27.1155ZM28.4399 59.1703L33.11 50.1668H33.9647L29.2908 59.1703H28.4399ZM29.722 59.1703L34.3959 50.1668H35.3122L30.6383 59.1703H29.722ZM31.0695 59.1703L35.7472 50.1668H36.5981L31.9203 59.1703H31.0695ZM33.3795 59.1703L38.0649 50.1668H38.885L34.1995 59.1703H33.3795ZM34.6615 59.1703L39.3508 50.1668H40.2671L35.5778 59.1703H34.6615ZM36.009 59.1703L40.7022 50.1668H41.553L36.8445 59.1703H36.009ZM37.2911 59.1703L41.9881 50.1668H42.8851L38.1843 59.1703H37.2911ZM38.6155 59.1703L43.3163 50.1668H44.171L39.4663 59.1703H38.6155ZM39.8975 59.1703L44.6022 50.1668H45.5185L40.81 59.1703H39.8975ZM41.245 59.1703L45.9536 50.1668H46.8044L42.0805 59.1703H41.245Z" fill="#212020"/>
</g>
<defs>
<clipPath id="clip0_290_92">
<rect width="77" height="77" fill="white"/>
</clipPath>
</defs>
</svg>
