<svg width="91" height="90" viewBox="0 0 91 90" fill="none" xmlns="http://www.w3.org/2000/svg">
<path d="M23.9141 4.39453L14.4764 20.918H76.5254L67.0859 4.39453H23.9141ZM4.89453 24.082V32.168H86.1055V24.082H4.89453ZM10.5195 35.332V43.418H18.6055V35.332H10.5195ZM72.3945 35.332V43.418H80.4805V35.332H72.3945ZM42.2656 35.4375C42.2656 35.4375 38.3984 36.9844 38.0469 38.7422C37.2383 42.75 44.0059 49.4297 44.0059 49.4297C44.0059 49.4297 41.668 43.3477 41.4922 40.1484C41.4043 38.5488 42.2656 35.4375 42.2656 35.4375ZM51.8281 38.0391C50.7559 45.1055 49.8594 52.752 43.7598 55.6523C38.4336 58.1836 37.3613 41.8535 27.2188 39.5684C35.1113 57.3398 15.1074 64.1602 34.6367 72.123H38.0645C33.8457 67.5703 32.0176 56.1621 32.0176 56.1621C32.0176 56.1621 37.3262 68.8184 43.0039 69.2051C45.6406 69.3809 48.8926 63.8965 48.8926 63.8965C48.8926 63.8965 49.9297 69.1348 48.875 72.123H56.5742C61.373 69.5215 64.4141 65.8477 65.5742 62.0508C66.7168 58.377 66.1016 54.5801 63.6582 51.5215C62.1465 60.627 59.8965 62.5606 53.9727 64.5469C60.4062 56.6895 57.5234 43.5938 51.8281 38.0391ZM10.5195 46.582V54.668H18.6055V46.582H10.5195ZM72.3945 46.582V54.668H80.4805V46.582H72.3945ZM10.5195 57.832V71.543H18.6055V57.832H10.5195ZM72.3945 57.832V71.543H80.4805V57.832H72.3945ZM4.89453 74.707V85.6055H86.1055V74.707H4.89453Z" fill="white"/>
</svg>
