<svg width="91" height="90" viewBox="0 0 91 90" fill="none" xmlns="http://www.w3.org/2000/svg">
<g clip-path="url(#clip0_35_12)">
<path d="M53.706 49.383L53.679 49.3785L38.037 51.6375V52.011L53.6745 49.752L63.5115 51.327L63.4935 50.949L53.706 49.383ZM28.326 58.3335L37.7175 56.709L37.65 48.861L28.326 50.0265V58.3335ZM36.1605 50.607C36.426 50.607 36.642 50.9625 36.642 51.408C36.642 51.8535 36.417 52.2 36.1515 52.2C35.886 52.2 35.679 51.8445 35.679 51.408C35.679 50.9715 35.895 50.607 36.1605 50.607ZM42.42 52.443L38.046 53.118L38.0505 53.496L42.42 52.821V52.443ZM22.467 55.899L23.655 55.7145V55.341L22.467 55.521V55.899ZM22.467 54.261L23.655 54.09V53.7165L22.467 53.8875V54.261ZM63.1335 35.1L75.1755 35.3655V20.1105L63.1335 21.15V35.1ZM64.245 22.185L74.064 21.321V34.263L64.245 34.047V22.185ZM22.467 57.717L23.655 57.5235V57.15L22.467 57.3435V57.717ZM2.892 40.2705L4.0215 40.3785V22.905L2.892 23.166V40.2705ZM11.748 22.9815L4.692 22.86V40.41L11.748 40.0725V22.9815ZM10.398 38.952L6.0915 39.1365V24.3H10.4745L10.398 38.952ZM19.119 39.6675L19.2675 23.121L12.2115 22.9995L12.2655 40.05L19.119 39.6675ZM17.994 24.3L17.949 38.5785L13.6425 38.8125L13.6065 24.3H17.994ZM6.9825 75.4335L6.8385 52.803L3.153 51.66V72.7515L6.9825 75.4335ZM38.064 55.179L42.42 54.468V54.0945L38.0595 54.801L38.064 55.179ZM39.54 58.3155L40.323 58.5495L42.42 58.167V57.7935L39.54 58.3155ZM31.5345 59.3685L36.2955 60.9255C37.1681 61.2088 38.101 61.2508 38.9955 61.047L43.7205 59.9445C43.7301 59.9426 43.7388 59.9376 43.7453 59.9303C43.7518 59.923 43.7557 59.9137 43.7565 59.904C43.757 59.8941 43.7541 59.8843 43.7484 59.8761C43.7427 59.868 43.7345 59.862 43.725 59.859L38.055 58.167L31.5345 59.3685ZM38.082 57.096L42.42 56.3355V55.962L38.0775 56.7225L38.082 57.096ZM22.467 52.3665L23.655 52.209V51.8355L22.467 51.993V52.3665ZM31.0125 63.9945C30.8695 63.8334 30.6988 63.6993 30.5085 63.5985C30.2248 63.464 29.9813 63.2577 29.802 63C29.5245 62.4833 29.3725 61.9085 29.3584 61.3222C29.3443 60.7358 29.4686 60.1544 29.721 59.625L29.775 59.4585L29.9415 59.5035L30.45 59.652H30.5625L29.793 59.4L37.4745 57.987H37.5555L37.7175 57.96V57.0915L28.344 58.707L28.317 58.554V69.7005L30.9045 69.102C30.7607 68.2424 30.8271 67.3608 31.098 66.5325C31.35 65.5155 31.548 64.638 31.0125 63.9945ZM40.8 64.773C40.863 64.584 41.0925 64.557 41.7 64.4805C42.3075 64.404 43.4415 64.269 43.545 63.8865C43.8162 62.8673 43.93 61.8126 43.8825 60.759C41.7048 61.5985 39.3983 62.0552 37.065 62.109C35.8839 61.9117 34.73 61.5764 33.627 61.11C32.434 60.6615 31.2241 60.2592 30 59.904C29.7925 60.3588 29.6931 60.8555 29.7095 61.3551C29.7259 61.8547 29.8576 62.3438 30.0945 62.784C30.2357 63.003 30.4373 63.1765 30.675 63.2835C30.9101 63.398 31.1174 63.5623 31.2825 63.765C31.944 64.5525 31.701 65.565 31.4445 66.6315C31.1622 67.4554 31.1108 68.341 31.296 69.192L36.651 71.3385C38.1769 71.1424 39.6694 70.7413 41.088 70.146C41.0667 69.2862 40.9961 68.4283 40.8765 67.5765C40.6882 66.6536 40.6623 65.7048 40.8 64.773ZM42.8385 52.2V59.3145L43.8645 59.6205C43.9197 59.6456 43.9665 59.6862 43.9992 59.7373C44.032 59.7884 44.0493 59.8478 44.049 59.9085V60.1605C44.0436 60.2104 44.0299 60.2591 44.0085 60.3045H44.04L44.1435 60.381C44.3658 61.4243 44.3272 62.5063 44.031 63.531L72.381 72.531L72.0885 58.05L42.8385 52.2ZM41.3085 67.95C41.3505 68.286 41.3865 68.6205 41.4165 68.9535L55.3215 74.2365L64.7715 70.839L48.7425 65.7585L41.3085 67.95ZM0.75 0V90H90.75V0H0.75ZM53.7015 43.4115L47.4285 44.0775V42.7725L53.6655 42.1065L89.625 45.576V47.2365L53.7015 43.4115ZM89.6385 49.2255L53.7015 44.82L47.442 45.495V44.451L53.742 43.767L89.634 47.61L89.6385 49.2255ZM53.679 41.7375L47.4555 42.399V41.2515L53.733 40.7565L89.6385 43.785V45.207L53.679 41.7375ZM53.733 40.3875L47.4555 40.8825V39.4875L53.724 39.141L89.6295 41.751V43.4115L53.733 40.3875ZM53.733 38.772L47.505 39.114V37.908L53.6835 37.674L89.643 39.924V41.382L53.733 38.772ZM62.4 35.856V20.4885L75.9 19.3005V36.153L62.4 35.856ZM84.5175 1.1115L53.7465 7.443L18.705 1.1115H84.5175ZM31.8675 12.15V11.2185L46.947 12.7845L47.127 37.5345V37.8315L47.0685 45.5265L31.8855 47.1735V34.0785L44.7015 33.705L44.85 13.4145L31.8675 12.15ZM2.523 40.5V22.869L4.395 22.4415V22.5L12.117 22.6305L19.65 22.7565L19.569 30.735L19.65 39.465L31.4985 38.907V40.392L1.866 42.3765V40.5H2.523ZM1.8615 42.75L31.494 40.7655V42.174L1.8615 44.6625V42.75ZM1.8615 45.0315L31.494 42.543V43.893L1.8615 46.6425V45.0315ZM10.353 49.2255L10.1055 49.545L1.8615 50.445V48.9015L10.2945 48.0645L10.353 49.2255ZM11.9325 50.211C14.145 49.7682 16.421 49.7453 18.642 50.1435C18.7095 50.499 15.6045 50.805 14.1015 50.94C11.9532 51.3226 9.76371 51.4195 7.59 51.228C7.59 50.823 10.524 50.4 11.9325 50.211ZM12.9225 47.3985L11.631 47.088V46.638L12.819 46.422L11.172 46.1475L31.494 44.262V45.513L12.9225 47.3985ZM31.494 45.9585V47.2185L11.748 49.3605V47.916L12.2475 47.871L12.3375 47.898L13.386 47.7585L31.494 45.9585ZM1.8615 46.998L10.2 46.2195L10.227 46.7505V47.2005L10.254 47.6865L1.839 48.5415L1.8615 46.998ZM89.7465 88.893H1.8615V73.242L2.883 73.017L2.784 72.945V71.55L1.8615 71.7435V69.687L2.784 69.507V69.129L1.8615 69.3135V67.7295L2.784 67.5495V67.185L1.8615 67.365V65.5065L2.784 65.34V64.9665L1.8615 65.133V63.45L2.784 63.2925V62.9145L1.8615 63.0765V61.0965L2.784 60.9435V60.57L1.8615 60.7185V59.0985L2.784 58.9545V58.581L1.8615 58.725V57.24L2.784 57.105V56.7315L1.8615 56.8665V55.125L2.784 55.0035V54.63L1.8615 54.7515V52.9515L2.784 52.8435V52.47L1.8615 52.578V50.778L10.1595 49.878L10.2495 49.9275L2.1495 50.8275L5.9385 52.0965H5.8845L6.7485 52.362L6.897 52.4115L6.9825 52.443L23.412 50.4L23.655 50.3685V49.995L22.926 50.085L18.4845 49.05L11.946 49.761L11.901 49.707L53.6745 45.1755L89.6385 49.5855V51.183L53.7015 46.3815L37.4205 48.3345L38.1765 48.4335H38.0325V48.6135L53.7015 46.7325L89.661 51.5385V53.1L67.8765 49.9005V50.274L89.661 53.4735V55.134L67.8765 51.6465V51.984L68.061 52.0515L89.661 55.5075V56.8845L82.983 55.7325V56.106L89.67 57.258V59.058L82.92 57.789V58.1625L89.67 59.436V60.8175L82.92 59.5305V59.904L89.697 61.1955V63.09L82.8795 61.695V62.0685L89.706 63.468V64.9575L82.848 63.4725V63.8505L89.715 65.3355V67.347L82.803 65.7405V66.1185L89.724 67.7295V68.913L82.776 67.329V68.1345L82.0605 68.49L89.7465 70.326V88.893ZM73.056 72.4635L82.3035 67.896L82.596 55.404L72.7365 57.9915L73.056 72.4635ZM72.687 57.6L75.729 56.8125H75.7605L76.593 56.592L78.9555 55.98L82.983 54.9405L83.1 54.9L67.8 52.371L67.2915 52.506L66.351 52.3755L66.2205 52.218L66.3195 52.128L64.4475 51.8175L64.2495 51.8985L63.516 51.75V51.6645L53.4 49.9815L42.3885 51.669L44.5935 52.119H44.4765L45.5385 52.3305H45.6465L49.062 53.019H48.981L50.0205 53.226H50.0925L55.974 54.4095L54.435 54.117L61.356 55.494L72.309 57.699H72.435L72.75 57.6H72.687ZM46.2 51.921C46.1543 51.914 46.1127 51.8908 46.0826 51.8557C46.0525 51.8207 46.0359 51.776 46.0359 51.7297C46.0359 51.6835 46.0525 51.6388 46.0826 51.6038C46.1127 51.5687 46.1543 51.5455 46.2 51.5385L52.077 50.6385C52.3324 50.6035 52.5891 50.5795 52.8465 50.5665L54.453 53.4105L46.2 51.921ZM70.9275 56.3355L54.9525 53.4825L53.292 50.5395C53.6822 50.5472 54.0716 50.5803 54.4575 50.6385L78.033 54.594C78.0848 54.6115 78.1276 54.6487 78.1521 54.6976C78.1765 54.7465 78.1806 54.8031 78.1635 54.855C78.1522 54.8847 78.1347 54.9118 78.1122 54.9342C78.0898 54.9567 78.0627 54.9742 78.033 54.9855L72.633 56.2815C72.082 56.4172 71.5086 56.4356 70.95 56.3355H70.9275ZM28.137 49.5315L36.732 48.4245L33.447 47.988L24.7665 48.915L28.137 49.5315ZM22.467 65.592L23.655 65.3535V64.9755L22.467 65.214V65.592ZM22.467 59.8275L23.655 59.6205V59.2425L22.467 59.4495V59.8275ZM22.467 61.7805L23.655 61.5645V61.1865L22.467 61.4025V61.7805ZM22.467 63.693L23.655 63.459V63.081L22.467 63.315V63.693ZM27.786 49.986L24.024 49.284V67.9815L27.705 69.6465L27.786 49.986ZM22.467 68.6745L23.9295 68.3505L23.655 68.2245V67.113L22.467 67.365V68.6745ZM15.78 73.3905L22.08 71.802V51.0435L15.6 51.84L15.78 73.3905ZM21 52.5285L21.144 53.847L16.887 54.486L16.662 53.136L21 52.5285ZM7.5 52.8165L7.7115 75.5685L15.42 73.485L15.0375 51.9165L7.5 52.8165ZM9.3495 55.485L9.147 54.135L13.4805 53.487L13.602 54.8145L9.3495 55.485ZM63.282 50.4315L63.5565 50.4495L63.6105 51.462L63.5925 51.687L64.2315 51.8175L64.677 51.633L64.6725 51.543L64.5375 51.5115V50.508L65.4555 50.3865H65.4645L66.2745 50.5035L66.432 50.499L66.486 52.1145L66.342 52.2405L66.3915 52.3035L67.287 52.4295L68.0115 52.2405V52.1595L67.764 52.0695V49.3785L66.963 49.338L65.901 49.59V49.662L66.4725 49.7385L66.4635 50.139L64.56 49.923L64.551 49.0545L63.786 48.9555L62.9805 49.14V49.1985L63.561 49.293L63.57 50.076L63.3 50.166L63.282 50.4315ZM63.4665 49.3515L62.886 49.257V49.167L53.706 47.8215L53.679 47.817L38.019 49.914L38.0235 50.283L53.679 48.1905L63.471 49.6305L63.4665 49.3515Z" fill="white"/>
</g>
<defs>
<clipPath id="clip0_35_12">
<rect width="90" height="90" fill="white" transform="translate(0.75)"/>
</clipPath>
</defs>
</svg>
